<?xml version="1.0" encoding="utf-8"?>
<!-- Generator: Adobe Illustrator 16.0.0, SVG Export Plug-In . SVG Version: 6.00 Build 0)  -->
<!DOCTYPE svg PUBLIC "-//W3C//DTD SVG 1.1//EN" "http://www.w3.org/Graphics/SVG/1.1/DTD/svg11.dtd">
<svg version="1.1" id="Layer_1" xmlns="http://www.w3.org/2000/svg" xmlns:xlink="http://www.w3.org/1999/xlink" x="0px" y="0px"
	 width="331px" height="485.5px" viewBox="0 0 331 485.5" enable-background="new 0 0 331 485.5" xml:space="preserve">
<path fill="#428BCA" stroke="#428BCA" stroke-width="2" stroke-miterlimit="10" d="M161.606,62.413c0,5.053-4.097,9.149-9.15,9.149
	H55.383c-5.054,0-9.149-4.097-9.149-9.149V28.042c0-5.053,4.096-9.149,9.149-9.149h97.073c5.054,0,9.15,4.096,9.15,9.149V62.413z"/>
<g>
	<path fill="#FFFFFF" stroke="#FFFFFF" d="M87.443,47.336c0,0.106-0.042,0.194-0.123,0.262c-0.082,0.067-0.176,0.101-0.283,0.101
		c-0.164,0-0.292-0.071-0.384-0.213l-1.431-2.263c-0.185-0.292-0.377-0.493-0.576-0.603c-0.2-0.11-0.47-0.166-0.811-0.166H82.49
		v2.786c0,0.135-0.039,0.244-0.117,0.326c-0.079,0.082-0.182,0.123-0.31,0.123c-0.135,0-0.242-0.041-0.32-0.123
		c-0.079-0.082-0.118-0.19-0.118-0.326v-6.704c0-0.128,0.041-0.231,0.123-0.31c0.082-0.078,0.19-0.118,0.326-0.118h2.647
		c0.818,0,1.443,0.182,1.874,0.545c0.431,0.363,0.646,0.896,0.646,1.601c0,0.598-0.173,1.078-0.518,1.441
		c-0.345,0.363-0.837,0.584-1.478,0.662c0.178,0.057,0.338,0.149,0.48,0.277c0.142,0.128,0.285,0.306,0.427,0.534l1.217,1.921
		C87.418,47.169,87.443,47.251,87.443,47.336z M84.646,43.729c0.583,0,1.02-0.121,1.308-0.363c0.288-0.242,0.432-0.608,0.432-1.099
		c0-0.484-0.142-0.843-0.427-1.078c-0.284-0.235-0.722-0.353-1.313-0.353H82.49v2.893H84.646z"/>
	<path fill="#FFFFFF" stroke="#FFFFFF" d="M92.887,44.358v2.903c0,0.128-0.037,0.232-0.112,0.31s-0.176,0.117-0.304,0.117
		s-0.231-0.039-0.31-0.117c-0.079-0.078-0.118-0.182-0.118-0.31v-0.512c-0.135,0.306-0.341,0.543-0.619,0.71
		c-0.277,0.167-0.598,0.251-0.96,0.251c-0.334,0-0.643-0.068-0.924-0.203c-0.281-0.135-0.503-0.324-0.667-0.566
		c-0.164-0.242-0.245-0.509-0.245-0.801c0-0.391,0.099-0.695,0.299-0.913c0.199-0.217,0.526-0.374,0.982-0.47
		c0.456-0.096,1.089-0.144,1.9-0.144h0.235v-0.352c0-0.427-0.087-0.74-0.261-0.939c-0.175-0.199-0.458-0.299-0.849-0.299
		c-0.484,0-0.975,0.132-1.473,0.395c-0.192,0.121-0.328,0.181-0.406,0.181c-0.085,0-0.157-0.032-0.213-0.096
		c-0.057-0.064-0.085-0.146-0.085-0.246c0-0.099,0.03-0.187,0.091-0.261s0.158-0.151,0.293-0.229
		c0.249-0.143,0.532-0.254,0.849-0.336c0.316-0.082,0.631-0.123,0.945-0.123C92.236,42.309,92.887,42.992,92.887,44.358z
		 M91.633,46.594c0.274-0.288,0.411-0.66,0.411-1.115v-0.31h-0.192c-0.626,0-1.103,0.026-1.431,0.08
		c-0.327,0.053-0.56,0.142-0.699,0.267c-0.139,0.124-0.208,0.308-0.208,0.549c0,0.278,0.102,0.507,0.304,0.689
		c0.203,0.181,0.458,0.272,0.763,0.272C91.008,47.027,91.358,46.883,91.633,46.594z"/>
	<path fill="#FFFFFF" stroke="#FFFFFF" d="M101.928,42.351c0.106,0,0.203,0.036,0.288,0.107c0.086,0.071,0.128,0.16,0.128,0.267
		c0,0.05-0.01,0.103-0.031,0.16l-1.772,4.483c-0.043,0.093-0.105,0.166-0.187,0.219s-0.173,0.08-0.272,0.08
		c-0.093,0-0.18-0.026-0.262-0.08s-0.144-0.126-0.187-0.219l-1.473-3.747l-1.462,3.747c-0.036,0.093-0.096,0.166-0.182,0.219
		s-0.178,0.08-0.277,0.08c-0.093,0-0.182-0.026-0.267-0.08s-0.149-0.126-0.192-0.219l-1.772-4.472
		c-0.021-0.057-0.032-0.107-0.032-0.15c0-0.113,0.048-0.209,0.145-0.288c0.096-0.078,0.2-0.117,0.314-0.117
		c0.171,0,0.292,0.085,0.363,0.256l1.462,3.939l1.505-3.907c0.042-0.092,0.101-0.164,0.176-0.214
		c0.075-0.049,0.155-0.074,0.24-0.074c0.092,0,0.176,0.025,0.251,0.074c0.075,0.05,0.13,0.122,0.166,0.214l1.505,3.896l1.473-3.917
		C101.647,42.437,101.765,42.351,101.928,42.351z"/>
	<path fill="#FFFFFF" stroke="#FFFFFF" d="M106.375,47.518c-0.082-0.079-0.123-0.182-0.123-0.31v-6.671
		c0-0.128,0.041-0.231,0.123-0.31c0.082-0.078,0.19-0.118,0.325-0.118h3.993c0.128,0,0.228,0.032,0.298,0.096
		c0.072,0.064,0.107,0.153,0.107,0.267s-0.036,0.203-0.107,0.267c-0.071,0.064-0.17,0.096-0.298,0.096h-3.576v2.616h3.362
		c0.128,0,0.228,0.032,0.299,0.096c0.071,0.064,0.106,0.153,0.106,0.267c0,0.114-0.036,0.203-0.106,0.267
		c-0.071,0.064-0.171,0.096-0.299,0.096h-3.362v2.732h3.576c0.128,0,0.228,0.031,0.298,0.091c0.072,0.061,0.107,0.151,0.107,0.272
		c0,0.114-0.036,0.203-0.107,0.267c-0.071,0.064-0.17,0.096-0.298,0.096H106.7C106.565,47.635,106.456,47.596,106.375,47.518z"/>
	<path fill="#FFFFFF" stroke="#FFFFFF" d="M119.46,40.179c0.075,0.082,0.113,0.19,0.113,0.325v6.757c0,0.128-0.036,0.232-0.106,0.31
		c-0.072,0.078-0.171,0.117-0.3,0.117c-0.128,0-0.224-0.039-0.288-0.117c-0.064-0.078-0.096-0.182-0.096-0.31v-5.454l-2.316,4.44
		c-0.1,0.207-0.245,0.31-0.438,0.31c-0.185,0-0.331-0.103-0.437-0.31l-2.328-4.387v5.401c0,0.128-0.034,0.232-0.101,0.31
		c-0.068,0.078-0.166,0.117-0.293,0.117c-0.128,0-0.228-0.039-0.299-0.117c-0.071-0.078-0.107-0.182-0.107-0.31v-6.757
		c0-0.135,0.039-0.243,0.117-0.325c0.079-0.082,0.185-0.123,0.32-0.123c0.178,0,0.32,0.104,0.427,0.31l2.712,5.199l2.679-5.199
		c0.058-0.114,0.119-0.193,0.187-0.24c0.068-0.046,0.147-0.069,0.241-0.069C119.281,40.056,119.386,40.097,119.46,40.179z"/>
	<path fill="#FFFFFF" stroke="#FFFFFF" d="M127.296,43.813c0.067,0.064,0.102,0.153,0.102,0.267v2.658
		c0,0.17-0.027,0.298-0.081,0.384c-0.053,0.085-0.151,0.153-0.293,0.203c-0.285,0.121-0.63,0.217-1.036,0.288
		c-0.405,0.071-0.811,0.107-1.217,0.107c-0.747,0-1.392-0.153-1.932-0.459c-0.541-0.306-0.956-0.747-1.244-1.323
		s-0.433-1.267-0.433-2.071c0-0.79,0.143-1.473,0.428-2.049c0.284-0.577,0.694-1.02,1.228-1.329c0.533-0.31,1.16-0.464,1.879-0.464
		c0.498,0,0.96,0.076,1.387,0.229c0.427,0.153,0.786,0.372,1.078,0.657c0.121,0.121,0.182,0.245,0.182,0.373
		c0,0.1-0.028,0.187-0.086,0.262c-0.057,0.075-0.128,0.112-0.213,0.112c-0.085,0-0.186-0.043-0.299-0.128
		c-0.37-0.285-0.704-0.482-1.003-0.592c-0.299-0.11-0.644-0.166-1.036-0.166c-0.847,0-1.496,0.267-1.948,0.8
		c-0.452,0.534-0.678,1.299-0.678,2.295c0,1.018,0.23,1.792,0.688,2.322c0.459,0.53,1.133,0.795,2.023,0.795
		c0.662,0,1.263-0.099,1.804-0.299v-2.284h-1.559c-0.121,0-0.217-0.032-0.288-0.096c-0.071-0.064-0.106-0.146-0.106-0.246
		c0-0.106,0.036-0.19,0.106-0.25c0.071-0.061,0.167-0.091,0.288-0.091h1.996C127.141,43.718,127.228,43.75,127.296,43.813z"/>
</g>
<path fill="#428BCA" stroke="#428BCA" stroke-width="2" stroke-miterlimit="10" d="M161.066,140.299
	c0,5.053-4.093,9.149-9.142,9.149H54.934c-5.049,0-9.142-4.096-9.142-9.149v-34.371c0-5.053,4.092-9.149,9.142-9.149h96.991
	c5.049,0,9.142,4.096,9.142,9.149V140.299z"/>
<g>
	<path fill="#FFFFFF" stroke="#FFFFFF" stroke-miterlimit="10" d="M91.959,125.729c-0.079-0.082-0.118-0.19-0.118-0.326V118.7
		c0-0.128,0.041-0.231,0.123-0.31s0.19-0.118,0.326-0.118h3.885c0.128,0,0.228,0.032,0.299,0.096
		c0.071,0.064,0.106,0.157,0.106,0.278c0,0.114-0.036,0.203-0.106,0.267c-0.071,0.064-0.171,0.096-0.299,0.096h-3.469v2.594h3.256
		c0.128,0,0.227,0.032,0.299,0.096c0.071,0.064,0.106,0.157,0.106,0.277c0,0.114-0.036,0.203-0.106,0.267
		c-0.072,0.064-0.171,0.096-0.299,0.096h-3.256v3.064c0,0.135-0.037,0.244-0.112,0.326c-0.075,0.082-0.18,0.123-0.315,0.123
		S92.037,125.811,91.959,125.729z"/>
	<path fill="#FFFFFF" stroke="#FFFFFF" stroke-miterlimit="10" d="M97.68,119.223c-0.107-0.099-0.16-0.231-0.16-0.395
		c0-0.156,0.053-0.284,0.16-0.384c0.106-0.099,0.245-0.149,0.416-0.149s0.31,0.05,0.417,0.149c0.107,0.1,0.16,0.228,0.16,0.384
		c0,0.164-0.053,0.296-0.16,0.395c-0.107,0.1-0.246,0.149-0.417,0.149S97.787,119.323,97.68,119.223z M97.781,125.74
		c-0.082-0.074-0.123-0.179-0.123-0.315v-4.504c0-0.135,0.041-0.24,0.123-0.315c0.082-0.075,0.187-0.112,0.315-0.112
		c0.128,0,0.231,0.037,0.31,0.112c0.079,0.075,0.118,0.18,0.118,0.315v4.504c0,0.143-0.039,0.25-0.118,0.321
		c-0.078,0.071-0.181,0.106-0.31,0.106C97.968,125.852,97.863,125.815,97.781,125.74z"/>
	<path fill="#FFFFFF" stroke="#FFFFFF" stroke-miterlimit="10" d="M100.258,125.74c-0.082-0.074-0.123-0.179-0.123-0.315v-6.778
		c0-0.135,0.041-0.24,0.123-0.315s0.187-0.112,0.315-0.112c0.121,0,0.222,0.038,0.304,0.112s0.123,0.18,0.123,0.315v6.778
		c0,0.136-0.041,0.241-0.123,0.315c-0.082,0.075-0.183,0.112-0.304,0.112C100.445,125.852,100.34,125.815,100.258,125.74z"/>
	<path fill="#FFFFFF" stroke="#FFFFFF" stroke-miterlimit="10" d="M105.387,125.511c0,0.121-0.044,0.212-0.133,0.272
		c-0.089,0.06-0.223,0.083-0.4,0.069l-0.289-0.021c-0.569-0.042-0.989-0.213-1.259-0.512c-0.271-0.299-0.405-0.751-0.405-1.356
		v-2.679h-0.715c-0.122,0-0.216-0.03-0.283-0.091c-0.068-0.061-0.102-0.141-0.102-0.24c0-0.107,0.034-0.192,0.102-0.256
		c0.067-0.064,0.162-0.096,0.283-0.096h0.715v-1.207c0-0.135,0.039-0.24,0.117-0.315c0.078-0.075,0.185-0.112,0.32-0.112
		c0.128,0,0.231,0.037,0.31,0.112c0.078,0.075,0.117,0.18,0.117,0.315v1.207h1.185c0.113,0,0.204,0.032,0.272,0.096
		c0.067,0.064,0.102,0.149,0.102,0.256c0,0.1-0.034,0.18-0.102,0.24c-0.068,0.061-0.159,0.091-0.272,0.091h-1.185v2.722
		c0,0.392,0.08,0.674,0.24,0.849s0.4,0.272,0.72,0.293l0.289,0.021C105.262,125.19,105.387,125.304,105.387,125.511z"/>
	<path fill="#FFFFFF" stroke="#FFFFFF" stroke-miterlimit="10" d="M110.468,124.688c0.057,0.064,0.085,0.146,0.085,0.246
		c0,0.178-0.125,0.341-0.374,0.491c-0.256,0.15-0.526,0.262-0.812,0.337c-0.284,0.074-0.562,0.112-0.832,0.112
		c-0.804,0-1.439-0.238-1.906-0.715c-0.466-0.477-0.699-1.135-0.699-1.975c0-0.534,0.104-1.005,0.31-1.415
		c0.207-0.409,0.497-0.728,0.87-0.956c0.374-0.227,0.799-0.341,1.275-0.341c0.676,0,1.213,0.221,1.612,0.662
		c0.398,0.441,0.598,1.039,0.598,1.793c0,0.143-0.029,0.246-0.085,0.31c-0.057,0.064-0.149,0.096-0.277,0.096h-3.438
		c0.064,1.224,0.644,1.836,1.74,1.836c0.277,0,0.516-0.037,0.715-0.112c0.199-0.074,0.413-0.176,0.641-0.304
		c0.185-0.107,0.31-0.16,0.374-0.16C110.343,124.592,110.411,124.625,110.468,124.688z M107.303,121.572
		c-0.274,0.285-0.436,0.687-0.485,1.206h3.021c-0.015-0.527-0.146-0.93-0.395-1.211s-0.598-0.422-1.046-0.422
		C107.942,121.145,107.577,121.287,107.303,121.572z"/>
	<path fill="#FFFFFF" stroke="#FFFFFF" stroke-miterlimit="10" d="M114.887,120.856c0,0.114-0.032,0.205-0.096,0.272
		s-0.174,0.108-0.331,0.123l-0.32,0.032c-0.477,0.042-0.831,0.211-1.063,0.507c-0.231,0.295-0.347,0.642-0.347,1.041v2.594
		c0,0.143-0.039,0.25-0.117,0.321c-0.079,0.071-0.182,0.106-0.31,0.106c-0.128,0-0.233-0.037-0.315-0.112
		c-0.082-0.074-0.123-0.179-0.123-0.315v-4.504c0-0.135,0.043-0.24,0.128-0.315c0.086-0.075,0.188-0.112,0.31-0.112
		c0.114,0,0.21,0.037,0.288,0.112c0.078,0.075,0.118,0.176,0.118,0.304v0.598c0.149-0.313,0.361-0.552,0.635-0.715
		c0.274-0.164,0.588-0.26,0.944-0.288l0.15-0.011C114.738,120.472,114.887,120.593,114.887,120.856z"/>
</g>
<path fill="#428BCA" stroke="#428BCA" stroke-width="2" stroke-miterlimit="10" d="M161.044,298.891
	c0,5.054-4.096,9.149-9.149,9.149H54.821c-5.054,0-9.15-4.096-9.15-9.149v-34.37c0-5.053,4.096-9.149,9.15-9.149h97.073
	c5.054,0,9.149,4.097,9.149,9.149V298.891z"/>
<g>
	<path fill="#FFFFFF" stroke="#FFFFFF" stroke-miterlimit="10" d="M63.244,283.924c-0.079-0.082-0.118-0.19-0.118-0.326v-6.703
		c0-0.128,0.041-0.231,0.123-0.31c0.082-0.078,0.19-0.118,0.326-0.118h3.885c0.128,0,0.228,0.032,0.299,0.097
		c0.071,0.063,0.107,0.156,0.107,0.277c0,0.114-0.036,0.203-0.107,0.268c-0.071,0.063-0.171,0.096-0.299,0.096h-3.469v2.594h3.256
		c0.128,0,0.228,0.032,0.299,0.096c0.071,0.064,0.106,0.157,0.106,0.277c0,0.114-0.035,0.203-0.106,0.268
		c-0.071,0.063-0.171,0.096-0.299,0.096h-3.256v3.063c0,0.136-0.037,0.244-0.112,0.326c-0.075,0.081-0.18,0.122-0.315,0.122
		C63.429,284.046,63.322,284.005,63.244,283.924z"/>
	<path fill="#FFFFFF" stroke="#FFFFFF" stroke-miterlimit="10" d="M73.101,278.805c0.075,0.079,0.112,0.182,0.112,0.31v4.516
		c0,0.121-0.038,0.221-0.112,0.299s-0.18,0.117-0.315,0.117c-0.128,0-0.229-0.037-0.304-0.112c-0.075-0.074-0.112-0.172-0.112-0.293
		v-0.534c-0.164,0.313-0.394,0.552-0.689,0.716c-0.295,0.163-0.628,0.245-0.998,0.245c-0.619,0-1.085-0.173-1.398-0.518
		c-0.313-0.345-0.47-0.855-0.47-1.531v-2.904c0-0.128,0.039-0.23,0.117-0.31c0.079-0.078,0.185-0.117,0.32-0.117
		c0.135,0,0.24,0.039,0.315,0.117c0.075,0.079,0.112,0.182,0.112,0.31v2.882c0,0.463,0.093,0.803,0.278,1.021
		c0.185,0.217,0.477,0.325,0.875,0.325c0.455,0,0.822-0.147,1.099-0.443c0.278-0.295,0.417-0.685,0.417-1.168v-2.616
		c0-0.128,0.039-0.23,0.117-0.31c0.079-0.078,0.185-0.117,0.32-0.117S73.026,278.727,73.101,278.805z"/>
	<path fill="#FFFFFF" stroke="#FFFFFF" stroke-miterlimit="10" d="M74.948,283.934c-0.082-0.074-0.123-0.179-0.123-0.314v-6.778
		c0-0.135,0.041-0.24,0.123-0.314c0.082-0.075,0.187-0.112,0.315-0.112c0.121,0,0.222,0.037,0.304,0.112
		c0.082,0.074,0.123,0.18,0.123,0.314v6.778c0,0.136-0.041,0.24-0.123,0.314c-0.082,0.075-0.183,0.112-0.304,0.112
		C75.135,284.046,75.03,284.009,74.948,283.934z"/>
	<path fill="#FFFFFF" stroke="#FFFFFF" stroke-miterlimit="10" d="M77.424,283.934c-0.082-0.074-0.123-0.179-0.123-0.314v-6.778
		c0-0.135,0.041-0.24,0.123-0.314c0.082-0.075,0.187-0.112,0.315-0.112c0.121,0,0.222,0.037,0.304,0.112
		c0.082,0.074,0.123,0.18,0.123,0.314v6.778c0,0.136-0.041,0.24-0.123,0.314c-0.082,0.075-0.183,0.112-0.304,0.112
		C77.611,284.046,77.506,284.009,77.424,283.934z"/>
	<path fill="#FFFFFF" stroke="#FFFFFF" stroke-miterlimit="10" d="M92.427,276.473c0.071-0.046,0.149-0.069,0.235-0.069
		c0.114,0,0.211,0.034,0.293,0.102c0.082,0.067,0.123,0.158,0.123,0.272c0,0.05-0.01,0.106-0.032,0.17l-2.413,6.8
		c-0.036,0.1-0.096,0.177-0.181,0.229c-0.085,0.054-0.182,0.08-0.289,0.08c-0.1,0-0.192-0.026-0.277-0.08
		c-0.085-0.053-0.146-0.13-0.182-0.229l-2.092-5.913l-2.113,5.913c-0.036,0.1-0.096,0.177-0.182,0.229
		c-0.085,0.054-0.178,0.08-0.277,0.08c-0.1,0-0.192-0.026-0.278-0.08c-0.085-0.053-0.146-0.13-0.181-0.229l-2.423-6.8
		c-0.021-0.057-0.033-0.11-0.033-0.16c0-0.113,0.045-0.206,0.134-0.277c0.088-0.07,0.189-0.106,0.304-0.106
		c0.085,0,0.165,0.023,0.24,0.069c0.075,0.046,0.126,0.115,0.155,0.208l2.103,6.063l2.135-5.999c0.036-0.107,0.092-0.187,0.17-0.24
		s0.164-0.08,0.256-0.08c0.093,0,0.178,0.028,0.257,0.085c0.078,0.058,0.135,0.139,0.17,0.246l2.103,6.01l2.125-6.085
		C92.306,276.588,92.356,276.519,92.427,276.473z"/>
	<path fill="#FFFFFF" stroke="#FFFFFF" stroke-miterlimit="10" d="M97.765,280.716v2.903c0,0.128-0.038,0.231-0.112,0.31
		c-0.075,0.078-0.177,0.117-0.305,0.117s-0.231-0.039-0.309-0.117c-0.079-0.078-0.118-0.182-0.118-0.31v-0.513
		c-0.135,0.307-0.342,0.543-0.619,0.71c-0.278,0.168-0.598,0.251-0.961,0.251c-0.334,0-0.642-0.067-0.923-0.202
		c-0.281-0.136-0.503-0.324-0.667-0.566c-0.164-0.241-0.246-0.509-0.246-0.801c0-0.391,0.1-0.695,0.299-0.912
		c0.199-0.217,0.526-0.374,0.982-0.47c0.455-0.096,1.089-0.145,1.9-0.145h0.234v-0.352c0-0.428-0.087-0.74-0.261-0.939
		c-0.175-0.199-0.457-0.299-0.849-0.299c-0.484,0-0.975,0.132-1.473,0.395c-0.192,0.121-0.328,0.182-0.406,0.182
		c-0.085,0-0.156-0.032-0.213-0.096c-0.057-0.064-0.085-0.146-0.085-0.246s0.03-0.187,0.09-0.262
		c0.061-0.074,0.159-0.15,0.294-0.229c0.249-0.143,0.531-0.254,0.848-0.336c0.316-0.082,0.631-0.123,0.945-0.123
		C97.113,278.666,97.765,279.35,97.765,280.716z M96.51,282.952c0.274-0.288,0.411-0.66,0.411-1.115v-0.31h-0.192
		c-0.626,0-1.104,0.026-1.43,0.08c-0.328,0.053-0.561,0.142-0.699,0.267c-0.139,0.124-0.208,0.308-0.208,0.55
		c0,0.277,0.102,0.507,0.304,0.688c0.203,0.182,0.458,0.272,0.763,0.272C95.885,283.385,96.236,283.24,96.51,282.952z"/>
	<path fill="#FFFFFF" stroke="#FFFFFF" stroke-miterlimit="10" d="M103.464,278.698c0.106,0,0.203,0.036,0.289,0.106
		c0.085,0.071,0.128,0.16,0.128,0.268c0,0.063-0.014,0.12-0.042,0.171l-2.082,4.482c-0.042,0.093-0.106,0.166-0.192,0.22
		c-0.086,0.053-0.178,0.079-0.278,0.079c-0.092,0-0.181-0.026-0.267-0.079c-0.085-0.054-0.153-0.127-0.203-0.22l-2.071-4.482
		c-0.028-0.051-0.042-0.104-0.042-0.16c0-0.107,0.048-0.199,0.145-0.278c0.096-0.078,0.2-0.117,0.314-0.117
		c0.072,0,0.141,0.021,0.208,0.064c0.068,0.043,0.119,0.103,0.155,0.181l1.783,4.003l1.783-3.981
		C103.169,278.783,103.294,278.698,103.464,278.698z"/>
	<path fill="#FFFFFF" stroke="#FFFFFF" stroke-miterlimit="10" d="M108.994,282.883c0.058,0.063,0.086,0.146,0.086,0.245
		c0,0.179-0.125,0.342-0.374,0.491c-0.256,0.149-0.526,0.262-0.811,0.337c-0.285,0.074-0.563,0.111-0.833,0.111
		c-0.804,0-1.439-0.238-1.905-0.715s-0.699-1.135-0.699-1.975c0-0.534,0.104-1.005,0.31-1.415c0.207-0.409,0.497-0.728,0.871-0.955
		c0.373-0.228,0.798-0.342,1.275-0.342c0.676,0,1.213,0.221,1.611,0.662c0.399,0.441,0.598,1.039,0.598,1.793
		c0,0.143-0.028,0.246-0.085,0.31c-0.058,0.064-0.15,0.097-0.278,0.097h-3.437c0.064,1.224,0.644,1.836,1.739,1.836
		c0.278,0,0.516-0.037,0.716-0.112c0.199-0.074,0.412-0.176,0.64-0.305c0.186-0.106,0.31-0.16,0.374-0.16
		C108.87,282.786,108.938,282.818,108.994,282.883z M105.829,279.766c-0.274,0.285-0.436,0.688-0.486,1.206h3.021
		c-0.014-0.526-0.146-0.93-0.395-1.211c-0.25-0.281-0.598-0.422-1.046-0.422C106.467,279.339,106.103,279.481,105.829,279.766z"/>
	<path fill="#FFFFFF" stroke="#FFFFFF" stroke-miterlimit="10" d="M119.091,283.694c0,0.106-0.041,0.193-0.123,0.262
		c-0.081,0.067-0.176,0.101-0.282,0.101c-0.164,0-0.292-0.071-0.385-0.213l-1.43-2.264c-0.185-0.291-0.377-0.492-0.577-0.603
		c-0.199-0.11-0.469-0.166-0.811-0.166h-1.346v2.786c0,0.136-0.039,0.244-0.117,0.326c-0.079,0.081-0.182,0.122-0.31,0.122
		c-0.135,0-0.242-0.041-0.32-0.122c-0.078-0.082-0.118-0.19-0.118-0.326v-6.703c0-0.128,0.041-0.231,0.123-0.31
		c0.082-0.078,0.191-0.118,0.326-0.118h2.647c0.818,0,1.442,0.182,1.874,0.545c0.431,0.363,0.646,0.896,0.646,1.602
		c0,0.598-0.173,1.078-0.518,1.44c-0.345,0.363-0.838,0.584-1.479,0.662c0.178,0.057,0.338,0.149,0.48,0.277
		c0.143,0.128,0.285,0.306,0.428,0.534l1.216,1.921C119.067,283.526,119.091,283.608,119.091,283.694z M116.294,280.086
		c0.584,0,1.02-0.121,1.308-0.363c0.289-0.241,0.433-0.608,0.433-1.099c0-0.484-0.142-0.844-0.427-1.079
		c-0.285-0.234-0.722-0.352-1.313-0.352h-2.156v2.893H116.294z"/>
	<path fill="#FFFFFF" stroke="#FFFFFF" stroke-miterlimit="10" d="M124.696,282.883c0.057,0.063,0.085,0.146,0.085,0.245
		c0,0.179-0.124,0.342-0.374,0.491c-0.256,0.149-0.526,0.262-0.811,0.337c-0.285,0.074-0.562,0.111-0.833,0.111
		c-0.804,0-1.439-0.238-1.905-0.715c-0.466-0.477-0.699-1.135-0.699-1.975c0-0.534,0.104-1.005,0.31-1.415
		c0.206-0.409,0.497-0.728,0.871-0.955c0.373-0.228,0.798-0.342,1.275-0.342c0.676,0,1.213,0.221,1.611,0.662
		c0.399,0.441,0.598,1.039,0.598,1.793c0,0.143-0.028,0.246-0.084,0.31c-0.058,0.064-0.15,0.097-0.278,0.097h-3.437
		c0.064,1.224,0.644,1.836,1.739,1.836c0.278,0,0.516-0.037,0.715-0.112c0.199-0.074,0.413-0.176,0.641-0.305
		c0.185-0.106,0.31-0.16,0.374-0.16C124.571,282.786,124.639,282.818,124.696,282.883z M121.531,279.766
		c-0.274,0.285-0.437,0.688-0.486,1.206h3.021c-0.014-0.526-0.146-0.93-0.395-1.211c-0.25-0.281-0.598-0.422-1.046-0.422
		C122.169,279.339,121.805,279.481,121.531,279.766z"/>
	<path fill="#FFFFFF" stroke="#FFFFFF" stroke-miterlimit="10" d="M126.954,283.736c-0.374-0.22-0.662-0.533-0.865-0.938
		c-0.203-0.406-0.305-0.876-0.305-1.409c0-0.534,0.105-1.008,0.315-1.42c0.21-0.413,0.503-0.733,0.881-0.961
		c0.377-0.228,0.812-0.342,1.302-0.342c0.27,0,0.539,0.038,0.806,0.112c0.267,0.074,0.5,0.184,0.699,0.325
		c0.128,0.086,0.219,0.169,0.273,0.251c0.053,0.082,0.08,0.173,0.08,0.272s-0.027,0.182-0.08,0.246
		c-0.054,0.063-0.123,0.096-0.208,0.096c-0.05,0-0.103-0.015-0.16-0.043c-0.057-0.028-0.105-0.057-0.144-0.085
		c-0.039-0.029-0.066-0.047-0.08-0.054c-0.185-0.121-0.361-0.217-0.528-0.288c-0.168-0.071-0.373-0.107-0.614-0.107
		c-0.519,0-0.923,0.177-1.212,0.529c-0.288,0.352-0.432,0.841-0.432,1.468c0,0.626,0.144,1.109,0.432,1.451
		c0.289,0.342,0.693,0.513,1.212,0.513c0.242,0,0.45-0.036,0.625-0.106c0.174-0.071,0.351-0.168,0.529-0.289
		c0.078-0.05,0.152-0.092,0.224-0.128c0.071-0.035,0.132-0.054,0.181-0.054c0.079,0,0.145,0.032,0.198,0.097
		c0.053,0.063,0.08,0.146,0.08,0.245c0,0.093-0.024,0.177-0.074,0.251c-0.05,0.075-0.143,0.158-0.278,0.251
		c-0.2,0.136-0.439,0.244-0.721,0.326c-0.281,0.081-0.564,0.122-0.848,0.122C127.756,284.067,127.327,283.957,126.954,283.736z"/>
	<path fill="#FFFFFF" stroke="#FFFFFF" stroke-miterlimit="10" d="M133.994,283.705c0,0.121-0.045,0.212-0.134,0.271
		c-0.088,0.061-0.222,0.084-0.4,0.069l-0.288-0.021c-0.569-0.042-0.989-0.213-1.26-0.512c-0.27-0.299-0.406-0.751-0.406-1.356
		v-2.679h-0.715c-0.121,0-0.215-0.03-0.283-0.091c-0.068-0.061-0.102-0.141-0.102-0.24c0-0.106,0.034-0.192,0.102-0.256
		c0.067-0.064,0.162-0.096,0.283-0.096h0.715v-1.207c0-0.135,0.04-0.24,0.118-0.314c0.078-0.075,0.185-0.112,0.32-0.112
		c0.128,0,0.231,0.037,0.31,0.112c0.078,0.074,0.117,0.18,0.117,0.314v1.207h1.186c0.114,0,0.204,0.031,0.272,0.096
		c0.068,0.063,0.102,0.149,0.102,0.256c0,0.1-0.034,0.18-0.102,0.24s-0.158,0.091-0.272,0.091h-1.186v2.722
		c0,0.392,0.081,0.675,0.241,0.85c0.16,0.174,0.4,0.271,0.721,0.293l0.288,0.021C133.869,283.385,133.994,283.498,133.994,283.705z"
		/>
	<path fill="#FFFFFF" stroke="#FFFFFF" stroke-miterlimit="10" d="M134.869,277.417c-0.107-0.099-0.16-0.23-0.16-0.395
		c0-0.156,0.053-0.284,0.16-0.385c0.106-0.099,0.246-0.148,0.416-0.148s0.31,0.05,0.416,0.148c0.107,0.101,0.16,0.229,0.16,0.385
		c0,0.164-0.053,0.296-0.16,0.395c-0.106,0.101-0.246,0.149-0.416,0.149S134.975,277.518,134.869,277.417z M134.97,283.934
		c-0.082-0.074-0.123-0.179-0.123-0.314v-4.505c0-0.135,0.041-0.239,0.123-0.314s0.187-0.112,0.315-0.112s0.231,0.037,0.31,0.112
		s0.117,0.18,0.117,0.314v4.505c0,0.143-0.039,0.249-0.117,0.32s-0.182,0.106-0.31,0.106S135.052,284.009,134.97,283.934z"/>
	<path fill="#FFFFFF" stroke="#FFFFFF" stroke-miterlimit="10" d="M138.765,277.508c-0.191,0.21-0.289,0.525-0.289,0.945v0.342
		h1.186c0.121,0,0.214,0.031,0.278,0.096c0.063,0.063,0.096,0.149,0.096,0.256c0,0.107-0.032,0.188-0.096,0.245
		c-0.064,0.058-0.157,0.086-0.278,0.086h-1.186v4.142c0,0.136-0.041,0.24-0.122,0.314c-0.082,0.075-0.184,0.112-0.305,0.112
		c-0.128,0-0.232-0.037-0.314-0.112c-0.082-0.074-0.123-0.179-0.123-0.314v-4.142h-0.715c-0.121,0-0.215-0.03-0.283-0.091
		s-0.101-0.141-0.101-0.24c0-0.106,0.033-0.192,0.101-0.256c0.068-0.064,0.162-0.096,0.283-0.096h0.715v-0.192
		c0-0.641,0.16-1.145,0.48-1.511s0.779-0.571,1.378-0.613l0.276-0.021c0.186-0.015,0.318,0.003,0.4,0.053s0.123,0.139,0.123,0.268
		c0,0.206-0.124,0.323-0.374,0.352l-0.277,0.021C139.241,277.179,138.957,277.298,138.765,277.508z"/>
	<path fill="#FFFFFF" stroke="#FFFFFF" stroke-miterlimit="10" d="M145.094,278.698c0.106,0,0.203,0.036,0.288,0.106
		c0.086,0.071,0.128,0.16,0.128,0.268c0,0.063-0.014,0.12-0.042,0.171l-3,6.468c-0.036,0.078-0.087,0.14-0.155,0.182
		c-0.067,0.043-0.137,0.064-0.207,0.064c-0.107,0-0.201-0.034-0.283-0.102s-0.123-0.154-0.123-0.262
		c0-0.057,0.015-0.113,0.043-0.171l0.747-1.611l-2.114-4.568c-0.028-0.051-0.042-0.104-0.042-0.16c0-0.107,0.049-0.199,0.145-0.278
		c0.096-0.078,0.2-0.117,0.314-0.117c0.071,0,0.141,0.021,0.208,0.064c0.068,0.043,0.119,0.103,0.155,0.181l1.782,4.003l1.782-3.981
		C144.798,278.783,144.924,278.698,145.094,278.698z"/>
</g>
<path fill="#428BCA" stroke="#428BCA" stroke-width="2" stroke-miterlimit="10" d="M308.079,214.512
	c0,5.053-4.093,9.149-9.142,9.149h-96.991c-5.05,0-9.142-4.096-9.142-9.149v-34.371c0-5.053,4.092-9.149,9.142-9.149h96.991
	c5.049,0,9.142,4.096,9.142,9.149V214.512z"/>
<g>
	<path fill="#FFFFFF" stroke="#FFFFFF" stroke-miterlimit="10" d="M217.151,193.804c0,0.107-0.04,0.194-0.122,0.262
		c-0.081,0.067-0.176,0.102-0.282,0.102c-0.164,0-0.292-0.071-0.385-0.213l-1.431-2.263c-0.185-0.292-0.377-0.493-0.576-0.604
		c-0.2-0.11-0.47-0.165-0.812-0.165h-1.345v2.786c0,0.135-0.039,0.244-0.117,0.326c-0.078,0.082-0.182,0.122-0.31,0.122
		c-0.135,0-0.242-0.041-0.32-0.122c-0.078-0.082-0.118-0.191-0.118-0.326v-6.703c0-0.128,0.041-0.231,0.123-0.31
		s0.19-0.118,0.326-0.118h2.646c0.819,0,1.443,0.182,1.873,0.545c0.432,0.362,0.646,0.896,0.646,1.601
		c0,0.598-0.173,1.078-0.519,1.441c-0.345,0.363-0.837,0.583-1.478,0.662c0.178,0.057,0.338,0.149,0.48,0.277
		c0.143,0.128,0.284,0.306,0.427,0.534l1.217,1.921C217.127,193.637,217.151,193.719,217.151,193.804z M214.355,190.196
		c0.583,0,1.02-0.121,1.307-0.363c0.289-0.242,0.434-0.608,0.434-1.1c0-0.484-0.143-0.843-0.427-1.078
		c-0.285-0.235-0.723-0.352-1.313-0.352h-2.156v2.893H214.355z"/>
	<path fill="#FFFFFF" stroke="#FFFFFF" stroke-miterlimit="10" d="M222.756,192.993c0.057,0.064,0.086,0.146,0.086,0.246
		c0,0.178-0.125,0.341-0.374,0.491c-0.256,0.149-0.526,0.262-0.812,0.336c-0.284,0.075-0.562,0.112-0.832,0.112
		c-0.805,0-1.439-0.238-1.905-0.715c-0.467-0.477-0.699-1.135-0.699-1.975c0-0.533,0.103-1.005,0.31-1.414
		c0.206-0.409,0.496-0.728,0.87-0.956c0.373-0.228,0.799-0.341,1.275-0.341c0.676,0,1.213,0.22,1.611,0.662s0.599,1.039,0.599,1.793
		c0,0.143-0.029,0.246-0.086,0.31s-0.149,0.096-0.277,0.096h-3.438c0.064,1.224,0.645,1.835,1.74,1.835
		c0.277,0,0.516-0.037,0.715-0.112s0.412-0.176,0.641-0.304c0.185-0.107,0.31-0.16,0.373-0.16
		C222.632,192.896,222.699,192.929,222.756,192.993z M219.591,189.875c-0.273,0.285-0.437,0.687-0.485,1.207h3.021
		c-0.014-0.527-0.146-0.931-0.395-1.211c-0.249-0.281-0.598-0.422-1.046-0.422C220.229,189.449,219.865,189.591,219.591,189.875z"/>
	<path fill="#FFFFFF" stroke="#FFFFFF" stroke-miterlimit="10" d="M231.669,190.836v2.893c0,0.135-0.039,0.24-0.117,0.315
		s-0.182,0.112-0.31,0.112s-0.233-0.037-0.314-0.112c-0.082-0.075-0.123-0.18-0.123-0.315v-2.871c0-0.477-0.085-0.822-0.256-1.036
		c-0.172-0.213-0.438-0.32-0.801-0.32c-0.434,0-0.775,0.146-1.025,0.438c-0.249,0.292-0.374,0.687-0.374,1.185v2.604
		c0,0.135-0.04,0.24-0.122,0.315s-0.187,0.112-0.314,0.112s-0.231-0.037-0.31-0.112s-0.117-0.18-0.117-0.315v-2.871
		c0-0.477-0.086-0.822-0.256-1.036c-0.172-0.213-0.442-0.32-0.812-0.32c-0.428,0-0.768,0.146-1.02,0.438
		c-0.253,0.292-0.379,0.687-0.379,1.185v2.604c0,0.135-0.039,0.24-0.118,0.315c-0.078,0.075-0.182,0.112-0.31,0.112
		s-0.232-0.037-0.314-0.112s-0.123-0.18-0.123-0.315v-4.504c0-0.128,0.041-0.231,0.123-0.31c0.082-0.079,0.187-0.118,0.314-0.118
		c0.121,0,0.221,0.038,0.299,0.112c0.079,0.075,0.118,0.176,0.118,0.304v0.512c0.156-0.306,0.374-0.541,0.65-0.705
		c0.278-0.163,0.599-0.245,0.961-0.245c0.812,0,1.342,0.341,1.591,1.024c0.149-0.313,0.377-0.562,0.683-0.747
		s0.655-0.277,1.047-0.277C231.093,188.776,231.669,189.463,231.669,190.836z"/>
	<path fill="#FFFFFF" stroke="#FFFFFF" stroke-miterlimit="10" d="M234.107,193.847c-0.373-0.221-0.661-0.536-0.863-0.945
		c-0.203-0.409-0.305-0.884-0.305-1.425s0.102-1.016,0.305-1.425c0.202-0.409,0.49-0.724,0.863-0.944
		c0.374-0.221,0.807-0.331,1.297-0.331c0.492,0,0.926,0.11,1.304,0.331c0.377,0.22,0.667,0.535,0.869,0.944
		c0.203,0.409,0.304,0.884,0.304,1.425s-0.101,1.016-0.304,1.425c-0.202,0.409-0.492,0.724-0.869,0.945
		c-0.378,0.221-0.812,0.331-1.304,0.331C234.914,194.178,234.481,194.067,234.107,193.847z M236.584,192.955
		c0.274-0.338,0.411-0.831,0.411-1.478c0-0.633-0.139-1.123-0.415-1.468c-0.278-0.345-0.67-0.517-1.176-0.517
		c-0.505,0-0.896,0.172-1.173,0.517c-0.278,0.346-0.417,0.835-0.417,1.468c0,0.64,0.137,1.131,0.411,1.473
		c0.273,0.342,0.667,0.513,1.179,0.513C235.917,193.462,236.311,193.293,236.584,192.955z"/>
	<path fill="#FFFFFF" stroke="#FFFFFF" stroke-miterlimit="10" d="M243.229,188.808c0.106,0,0.203,0.036,0.288,0.107
		c0.085,0.071,0.128,0.16,0.128,0.267c0,0.064-0.015,0.121-0.043,0.171l-2.081,4.483c-0.042,0.093-0.106,0.166-0.192,0.219
		c-0.085,0.053-0.178,0.08-0.277,0.08c-0.093,0-0.182-0.027-0.267-0.08s-0.153-0.126-0.202-0.219l-2.072-4.483
		c-0.028-0.05-0.042-0.103-0.042-0.16c0-0.106,0.049-0.199,0.144-0.277c0.097-0.079,0.201-0.118,0.315-0.118
		c0.071,0,0.141,0.021,0.208,0.064c0.067,0.043,0.119,0.104,0.155,0.182l1.782,4.003l1.782-3.981
		C242.934,188.894,243.06,188.808,243.229,188.808z"/>
	<path fill="#FFFFFF" stroke="#FFFFFF" stroke-miterlimit="10" d="M248.759,192.993c0.057,0.064,0.086,0.146,0.086,0.246
		c0,0.178-0.125,0.341-0.374,0.491c-0.256,0.149-0.527,0.262-0.812,0.336s-0.563,0.112-0.832,0.112
		c-0.805,0-1.439-0.238-1.906-0.715c-0.466-0.477-0.698-1.135-0.698-1.975c0-0.533,0.103-1.005,0.31-1.414
		c0.206-0.409,0.495-0.728,0.869-0.956c0.374-0.228,0.799-0.341,1.275-0.341c0.677,0,1.213,0.22,1.612,0.662
		c0.398,0.441,0.598,1.039,0.598,1.793c0,0.143-0.028,0.246-0.085,0.31s-0.149,0.096-0.277,0.096h-3.438
		c0.063,1.224,0.644,1.835,1.74,1.835c0.276,0,0.516-0.037,0.715-0.112s0.412-0.176,0.64-0.304c0.186-0.107,0.31-0.16,0.374-0.16
		C248.635,192.896,248.701,192.929,248.759,192.993z M245.594,189.875c-0.274,0.285-0.437,0.687-0.485,1.207h3.021
		c-0.014-0.527-0.146-0.931-0.396-1.211c-0.248-0.281-0.597-0.422-1.045-0.422C246.232,189.449,245.868,189.591,245.594,189.875z"/>
	<path fill="#FFFFFF" stroke="#FFFFFF" stroke-miterlimit="10" d="M253.162,193.985c-0.082-0.079-0.123-0.182-0.123-0.31v-6.671
		c0-0.128,0.041-0.231,0.123-0.31s0.19-0.118,0.326-0.118h2.081c1.202,0,2.133,0.326,2.791,0.977
		c0.658,0.651,0.987,1.578,0.987,2.781c0,1.202-0.33,2.131-0.993,2.786c-0.661,0.655-1.591,0.982-2.785,0.982h-2.081
		C253.353,194.103,253.244,194.063,253.162,193.985z M255.516,193.355c1.95,0,2.925-1.007,2.925-3.021
		c0-2.007-0.975-3.011-2.925-3.011h-1.602v6.031H255.516z"/>
	<path fill="#FFFFFF" stroke="#FFFFFF" stroke-miterlimit="10" d="M262.272,193.724c-0.52-0.309-0.92-0.754-1.2-1.334
		c-0.281-0.58-0.422-1.265-0.422-2.055c0-0.783,0.141-1.464,0.422-2.044c0.28-0.58,0.681-1.024,1.2-1.334
		c0.52-0.309,1.135-0.464,1.847-0.464c0.477,0,0.927,0.077,1.351,0.229c0.423,0.153,0.792,0.372,1.105,0.657
		c0.112,0.106,0.17,0.231,0.17,0.374c0,0.1-0.029,0.187-0.085,0.262c-0.057,0.074-0.125,0.112-0.203,0.112
		c-0.086,0-0.189-0.039-0.31-0.118c-0.363-0.284-0.692-0.483-0.987-0.597c-0.295-0.114-0.635-0.171-1.02-0.171
		c-0.825,0-1.461,0.269-1.905,0.806c-0.445,0.538-0.667,1.301-0.667,2.29c0,0.996,0.222,1.763,0.667,2.3
		c0.444,0.537,1.08,0.806,1.905,0.806c0.378,0,0.716-0.057,1.015-0.17c0.298-0.114,0.629-0.313,0.992-0.598
		c0.12-0.078,0.224-0.117,0.31-0.117c0.078,0,0.146,0.035,0.203,0.106c0.056,0.071,0.085,0.16,0.085,0.267
		c0,0.143-0.058,0.267-0.17,0.374c-0.313,0.285-0.683,0.503-1.105,0.656c-0.424,0.153-0.874,0.229-1.351,0.229
		C263.407,194.188,262.792,194.034,262.272,193.724z"/>
	<path fill="#FFFFFF" stroke="#FFFFFF" stroke-miterlimit="10" d="M271.778,193.948c-0.488-0.16-0.878-0.375-1.169-0.646
		c-0.107-0.1-0.16-0.225-0.16-0.374c0-0.1,0.028-0.187,0.085-0.262s0.124-0.112,0.203-0.112c0.092,0,0.192,0.039,0.299,0.117
		c0.661,0.512,1.416,0.769,2.263,0.769c0.611,0,1.082-0.117,1.409-0.352c0.327-0.235,0.49-0.569,0.49-1.003
		c0-0.25-0.078-0.45-0.234-0.604c-0.156-0.153-0.363-0.276-0.619-0.368s-0.601-0.188-1.035-0.288
		c-0.584-0.135-1.063-0.278-1.436-0.427c-0.374-0.15-0.676-0.363-0.907-0.641c-0.231-0.277-0.348-0.64-0.348-1.088
		c0-0.427,0.116-0.806,0.348-1.137c0.231-0.331,0.555-0.587,0.972-0.768c0.416-0.182,0.891-0.272,1.425-0.272
		c0.497,0,0.962,0.077,1.393,0.229c0.431,0.153,0.791,0.372,1.083,0.657c0.114,0.114,0.172,0.238,0.172,0.374
		c0,0.1-0.028,0.187-0.086,0.262c-0.057,0.074-0.124,0.112-0.203,0.112c-0.078,0-0.182-0.039-0.31-0.118
		c-0.349-0.284-0.672-0.483-0.972-0.597c-0.298-0.114-0.658-0.171-1.077-0.171c-0.591,0-1.05,0.123-1.378,0.368
		c-0.327,0.246-0.491,0.589-0.491,1.03c0,0.377,0.145,0.66,0.433,0.848c0.288,0.189,0.731,0.354,1.329,0.497
		c0.648,0.156,1.156,0.301,1.526,0.433c0.37,0.131,0.679,0.329,0.924,0.592c0.245,0.264,0.368,0.616,0.368,1.057
		c0,0.42-0.116,0.79-0.347,1.11c-0.231,0.32-0.558,0.569-0.978,0.747c-0.42,0.178-0.899,0.267-1.44,0.267
		C272.775,194.188,272.265,194.108,271.778,193.948z"/>
	<path fill="#FFFFFF" stroke="#FFFFFF" stroke-miterlimit="10" d="M281.38,189.294c0.313,0.345,0.469,0.859,0.469,1.542v2.893
		c0,0.135-0.039,0.24-0.117,0.315c-0.079,0.075-0.182,0.112-0.31,0.112c-0.136,0-0.242-0.037-0.32-0.112s-0.117-0.18-0.117-0.315
		v-2.871c0-0.463-0.095-0.804-0.283-1.025s-0.489-0.331-0.901-0.331c-0.478,0-0.858,0.146-1.143,0.438
		c-0.285,0.292-0.428,0.687-0.428,1.185v2.604c0,0.135-0.037,0.24-0.111,0.315s-0.18,0.112-0.314,0.112
		c-0.136,0-0.242-0.037-0.32-0.112s-0.118-0.18-0.118-0.315v-6.789c0-0.121,0.041-0.22,0.123-0.299
		c0.082-0.078,0.187-0.117,0.315-0.117c0.135,0,0.24,0.037,0.314,0.112c0.074,0.075,0.111,0.176,0.111,0.304v2.797
		c0.172-0.313,0.41-0.551,0.716-0.715c0.307-0.163,0.654-0.245,1.046-0.245C280.604,188.776,281.066,188.949,281.38,189.294z"/>
	<path fill="#FFFFFF" stroke="#FFFFFF" stroke-miterlimit="10" d="M283.45,187.527c-0.106-0.1-0.16-0.231-0.16-0.395
		c0-0.156,0.054-0.285,0.16-0.384s0.246-0.149,0.416-0.149c0.171,0,0.31,0.05,0.416,0.149s0.16,0.228,0.16,0.384
		c0,0.164-0.054,0.295-0.16,0.395s-0.245,0.149-0.416,0.149C283.696,187.677,283.557,187.627,283.45,187.527z M283.552,194.044
		c-0.082-0.075-0.123-0.18-0.123-0.315v-4.504c0-0.135,0.041-0.24,0.123-0.315s0.187-0.112,0.314-0.112s0.231,0.038,0.31,0.112
		s0.117,0.18,0.117,0.315v4.504c0,0.143-0.039,0.25-0.117,0.32s-0.182,0.106-0.31,0.106S283.634,194.119,283.552,194.044z"/>
	<path fill="#FFFFFF" stroke="#FFFFFF" stroke-miterlimit="10" d="M287.347,187.618c-0.192,0.21-0.289,0.525-0.289,0.944v0.342
		h1.186c0.121,0,0.214,0.032,0.277,0.096c0.064,0.064,0.097,0.149,0.097,0.256c0,0.107-0.032,0.189-0.097,0.246
		c-0.063,0.057-0.156,0.085-0.277,0.085h-1.186v4.142c0,0.135-0.041,0.24-0.122,0.315c-0.082,0.075-0.184,0.112-0.305,0.112
		c-0.128,0-0.232-0.037-0.314-0.112s-0.123-0.18-0.123-0.315v-4.142h-0.715c-0.121,0-0.215-0.03-0.283-0.091
		c-0.067-0.06-0.101-0.14-0.101-0.24c0-0.106,0.033-0.192,0.101-0.256c0.068-0.064,0.162-0.096,0.283-0.096h0.715v-0.192
		c0-0.641,0.16-1.144,0.48-1.511s0.779-0.571,1.377-0.614l0.277-0.021c0.186-0.015,0.318,0.003,0.4,0.053s0.123,0.139,0.123,0.267
		c0,0.207-0.124,0.324-0.374,0.353l-0.277,0.021C287.823,187.289,287.539,187.408,287.347,187.618z"/>
	<path fill="#FFFFFF" stroke="#FFFFFF" stroke-miterlimit="10" d="M291.937,193.814c0,0.121-0.045,0.212-0.134,0.272
		c-0.089,0.06-0.223,0.083-0.4,0.069l-0.288-0.021c-0.569-0.043-0.989-0.213-1.26-0.512s-0.406-0.751-0.406-1.356v-2.679h-0.715
		c-0.121,0-0.215-0.03-0.282-0.091c-0.068-0.06-0.102-0.14-0.102-0.24c0-0.106,0.033-0.192,0.102-0.256
		c0.067-0.064,0.161-0.096,0.282-0.096h0.715v-1.206c0-0.135,0.04-0.24,0.118-0.315s0.185-0.112,0.32-0.112
		c0.128,0,0.231,0.038,0.31,0.112s0.117,0.18,0.117,0.315v1.206h1.185c0.114,0,0.204,0.032,0.272,0.096
		c0.067,0.064,0.102,0.149,0.102,0.256c0,0.1-0.034,0.18-0.102,0.24c-0.068,0.061-0.158,0.091-0.272,0.091h-1.185v2.722
		c0,0.392,0.08,0.674,0.24,0.849c0.16,0.174,0.4,0.272,0.721,0.293l0.288,0.021C291.812,193.495,291.937,193.608,291.937,193.814z"
		/>
	<path fill="#FFFFFF" stroke="#FFFFFF" stroke-miterlimit="10" d="M221.865,204.104c0-1.594,0.377-3.113,1.131-4.558
		c0.093-0.164,0.217-0.245,0.374-0.245c0.085,0,0.158,0.028,0.219,0.085c0.061,0.057,0.09,0.128,0.09,0.214
		c0,0.05-0.011,0.103-0.031,0.16c-0.598,1.409-0.896,2.857-0.896,4.344c0,1.488,0.299,2.936,0.896,4.345
		c0.021,0.064,0.031,0.117,0.031,0.16c0,0.092-0.029,0.165-0.09,0.219c-0.061,0.053-0.134,0.08-0.219,0.08
		c-0.157,0-0.281-0.082-0.374-0.246C222.242,207.218,221.865,205.699,221.865,204.104z"/>
	<path fill="#FFFFFF" stroke="#FFFFFF" stroke-miterlimit="10" d="M230.682,208.299c0.05,0.079,0.075,0.16,0.075,0.246
		c0,0.099-0.039,0.181-0.117,0.245c-0.079,0.064-0.172,0.096-0.278,0.096c-0.186,0-0.334-0.092-0.448-0.277l-0.618-1.014
		c-0.257-0.399-0.655-0.598-1.196-0.598c-0.697,0-1.305-0.156-1.819-0.469c-0.517-0.313-0.913-0.758-1.191-1.334
		c-0.277-0.576-0.416-1.256-0.416-2.039c0-0.79,0.138-1.475,0.411-2.055c0.274-0.58,0.669-1.024,1.185-1.334
		c0.517-0.31,1.127-0.464,1.831-0.464c0.697,0,1.304,0.155,1.82,0.464c0.516,0.31,0.912,0.754,1.189,1.334
		c0.278,0.58,0.417,1.261,0.417,2.044c0,0.911-0.184,1.681-0.55,2.311c-0.367,0.63-0.888,1.069-1.564,1.318
		c0.157,0.05,0.296,0.134,0.417,0.251c0.12,0.117,0.245,0.279,0.373,0.486L230.682,208.299z M226.235,205.439
		c0.445,0.541,1.066,0.811,1.863,0.811s1.418-0.269,1.863-0.806c0.443-0.537,0.667-1.304,0.667-2.3c0-0.997-0.221-1.761-0.663-2.295
		c-0.44-0.533-1.063-0.8-1.867-0.8c-0.797,0-1.418,0.269-1.863,0.806c-0.444,0.537-0.667,1.3-0.667,2.29
		S225.791,204.898,226.235,205.439z"/>
	<path fill="#FFFFFF" stroke="#FFFFFF" stroke-miterlimit="10" d="M237.241,201.724c0.075,0.079,0.112,0.182,0.112,0.31v4.515
		c0,0.121-0.037,0.221-0.112,0.299c-0.075,0.079-0.18,0.118-0.314,0.118c-0.128,0-0.229-0.038-0.305-0.112
		c-0.075-0.074-0.112-0.172-0.112-0.293v-0.534c-0.164,0.313-0.394,0.552-0.688,0.715s-0.628,0.246-0.997,0.246
		c-0.62,0-1.086-0.173-1.398-0.518c-0.314-0.345-0.471-0.855-0.471-1.531v-2.904c0-0.128,0.039-0.231,0.117-0.31
		c0.079-0.078,0.186-0.117,0.32-0.117c0.136,0,0.241,0.039,0.315,0.117c0.075,0.079,0.112,0.182,0.112,0.31v2.882
		c0,0.463,0.092,0.803,0.277,1.02c0.185,0.217,0.477,0.325,0.875,0.325c0.456,0,0.822-0.147,1.1-0.443
		c0.278-0.295,0.417-0.685,0.417-1.169v-2.615c0-0.128,0.038-0.231,0.117-0.31c0.077-0.078,0.185-0.117,0.32-0.117
		C237.062,201.607,237.166,201.646,237.241,201.724z"/>
	<path fill="#FFFFFF" stroke="#FFFFFF" stroke-miterlimit="10" d="M238.986,200.336c-0.106-0.099-0.159-0.231-0.159-0.395
		c0-0.156,0.053-0.284,0.159-0.384c0.107-0.099,0.245-0.149,0.417-0.149c0.17,0,0.309,0.05,0.415,0.149
		c0.107,0.1,0.161,0.228,0.161,0.384c0,0.164-0.054,0.296-0.161,0.395c-0.106,0.1-0.245,0.149-0.415,0.149
		C239.231,200.486,239.094,200.436,238.986,200.336z M239.088,206.853c-0.082-0.074-0.122-0.179-0.122-0.315v-4.504
		c0-0.135,0.04-0.24,0.122-0.315c0.081-0.075,0.188-0.112,0.315-0.112s0.23,0.037,0.309,0.112s0.118,0.18,0.118,0.315v4.504
		c0,0.143-0.04,0.25-0.118,0.321c-0.078,0.071-0.181,0.106-0.309,0.106S239.169,206.928,239.088,206.853z"/>
	<path fill="#FFFFFF" stroke="#FFFFFF" stroke-miterlimit="10" d="M245.669,205.802c0.057,0.064,0.086,0.146,0.086,0.246
		c0,0.178-0.125,0.341-0.374,0.491c-0.256,0.15-0.527,0.262-0.812,0.336s-0.563,0.112-0.833,0.112c-0.804,0-1.438-0.238-1.905-0.715
		c-0.466-0.477-0.699-1.135-0.699-1.975c0-0.533,0.103-1.004,0.31-1.414c0.207-0.409,0.496-0.728,0.87-0.956
		c0.374-0.228,0.799-0.341,1.275-0.341c0.676,0,1.213,0.22,1.612,0.662c0.398,0.441,0.598,1.039,0.598,1.793
		c0,0.143-0.029,0.246-0.086,0.31s-0.148,0.096-0.276,0.096h-3.438c0.064,1.224,0.645,1.836,1.74,1.836
		c0.277,0,0.517-0.038,0.715-0.112c0.2-0.074,0.413-0.176,0.641-0.304c0.186-0.107,0.31-0.16,0.374-0.16
		C245.545,205.706,245.611,205.738,245.669,205.802z M242.504,202.685c-0.274,0.285-0.437,0.687-0.485,1.206h3.021
		c-0.015-0.527-0.146-0.93-0.396-1.211s-0.597-0.422-1.045-0.422C243.143,202.258,242.777,202.4,242.504,202.685z"/>
	<path fill="#FFFFFF" stroke="#FFFFFF" stroke-miterlimit="10" d="M249.811,206.624c0,0.121-0.044,0.211-0.134,0.272
		c-0.089,0.06-0.223,0.083-0.4,0.069l-0.288-0.021c-0.569-0.042-0.989-0.213-1.259-0.512c-0.271-0.299-0.406-0.751-0.406-1.356
		v-2.679h-0.716c-0.12,0-0.215-0.03-0.282-0.091c-0.067-0.06-0.102-0.14-0.102-0.24c0-0.107,0.034-0.192,0.102-0.256
		s0.162-0.096,0.282-0.096h0.716v-1.206c0-0.135,0.039-0.24,0.117-0.315c0.079-0.075,0.186-0.112,0.32-0.112
		c0.128,0,0.231,0.038,0.31,0.112c0.079,0.075,0.117,0.18,0.117,0.315v1.206h1.186c0.113,0,0.204,0.032,0.271,0.096
		c0.068,0.064,0.102,0.149,0.102,0.256c0,0.1-0.033,0.18-0.102,0.24c-0.067,0.061-0.158,0.091-0.271,0.091h-1.186v2.722
		c0,0.392,0.081,0.674,0.24,0.849c0.161,0.174,0.4,0.272,0.721,0.293l0.289,0.021C249.686,206.304,249.811,206.417,249.811,206.624z
		"/>
	<path fill="#FFFFFF" stroke="#FFFFFF" stroke-miterlimit="10" d="M253.67,206.8c-0.082-0.075-0.124-0.172-0.124-0.293v-6.725
		c0-0.135,0.039-0.243,0.118-0.325c0.078-0.082,0.185-0.123,0.319-0.123c0.136,0,0.243,0.041,0.32,0.123
		c0.079,0.082,0.118,0.19,0.118,0.325v6.383h3.448c0.128,0,0.227,0.032,0.298,0.096c0.072,0.064,0.107,0.157,0.107,0.277
		c0,0.122-0.035,0.214-0.107,0.278c-0.071,0.064-0.17,0.096-0.298,0.096h-3.896C253.853,206.912,253.752,206.875,253.67,206.8z"/>
	<path fill="#FFFFFF" stroke="#FFFFFF" stroke-miterlimit="10" d="M262.919,201.618c0.106,0,0.202,0.036,0.287,0.106
		c0.086,0.071,0.128,0.16,0.128,0.267c0,0.064-0.014,0.121-0.042,0.17l-3,6.469c-0.035,0.078-0.087,0.139-0.154,0.182
		s-0.138,0.064-0.208,0.064c-0.106,0-0.201-0.034-0.282-0.102c-0.082-0.067-0.124-0.154-0.124-0.261
		c0-0.057,0.015-0.114,0.043-0.171l0.748-1.612l-2.114-4.569c-0.029-0.05-0.042-0.103-0.042-0.16c0-0.107,0.048-0.199,0.144-0.278
		c0.096-0.078,0.201-0.117,0.314-0.117c0.072,0,0.141,0.021,0.209,0.064c0.067,0.042,0.119,0.103,0.155,0.181l1.782,4.003
		l1.782-3.981C262.622,201.703,262.748,201.618,262.919,201.618z"/>
	<path fill="#FFFFFF" stroke="#FFFFFF" stroke-miterlimit="10" d="M264.306,200.336c-0.106-0.099-0.16-0.231-0.16-0.395
		c0-0.156,0.054-0.284,0.16-0.384c0.106-0.099,0.245-0.149,0.417-0.149c0.171,0,0.31,0.05,0.416,0.149
		c0.106,0.1,0.16,0.228,0.16,0.384c0,0.164-0.054,0.296-0.16,0.395c-0.106,0.1-0.245,0.149-0.416,0.149
		C264.551,200.486,264.412,200.436,264.306,200.336z M264.407,206.853c-0.082-0.074-0.123-0.179-0.123-0.315v-4.504
		c0-0.135,0.041-0.24,0.123-0.315s0.187-0.112,0.315-0.112c0.128,0,0.23,0.037,0.31,0.112c0.078,0.075,0.117,0.18,0.117,0.315v4.504
		c0,0.143-0.039,0.25-0.117,0.321c-0.079,0.071-0.182,0.106-0.31,0.106C264.594,206.965,264.489,206.928,264.407,206.853z"/>
	<path fill="#FFFFFF" stroke="#FFFFFF" stroke-miterlimit="10" d="M271.244,203.646v2.893c0,0.136-0.037,0.241-0.111,0.315
		c-0.075,0.075-0.181,0.112-0.315,0.112c-0.136,0-0.242-0.038-0.32-0.112c-0.079-0.074-0.117-0.179-0.117-0.315v-2.839
		c0-0.484-0.094-0.836-0.283-1.057c-0.188-0.22-0.489-0.331-0.901-0.331c-0.478,0-0.858,0.146-1.143,0.438
		c-0.285,0.292-0.427,0.687-0.427,1.185v2.604c0,0.136-0.038,0.241-0.112,0.315c-0.075,0.075-0.18,0.112-0.314,0.112
		c-0.136,0-0.242-0.038-0.32-0.112c-0.079-0.074-0.118-0.179-0.118-0.315v-4.504c0-0.128,0.039-0.231,0.118-0.31
		c0.078-0.078,0.185-0.117,0.32-0.117c0.128,0,0.229,0.039,0.304,0.117c0.075,0.079,0.112,0.178,0.112,0.299v0.544
		c0.17-0.32,0.408-0.564,0.715-0.731c0.306-0.167,0.655-0.25,1.046-0.25C270.622,201.585,271.244,202.272,271.244,203.646z"/>
	<path fill="#FFFFFF" stroke="#FFFFFF" stroke-miterlimit="10" d="M277.361,201.724c0.078,0.079,0.117,0.182,0.117,0.31v4.526
		c0,0.776-0.199,1.361-0.598,1.756c-0.398,0.395-0.989,0.593-1.772,0.593c-0.762,0-1.395-0.149-1.9-0.449
		c-0.256-0.142-0.384-0.306-0.384-0.491c0-0.1,0.026-0.182,0.08-0.246c0.053-0.064,0.123-0.096,0.208-0.096
		c0.071,0,0.199,0.05,0.384,0.149c0.25,0.128,0.496,0.231,0.737,0.31c0.241,0.079,0.529,0.118,0.864,0.118
		c0.505,0,0.887-0.133,1.143-0.4s0.385-0.656,0.385-1.168v-0.918c-0.15,0.334-0.38,0.591-0.689,0.769
		c-0.31,0.178-0.674,0.267-1.094,0.267c-0.455,0-0.859-0.107-1.211-0.32c-0.354-0.214-0.627-0.516-0.822-0.907
		c-0.196-0.391-0.294-0.843-0.294-1.356c0-0.512,0.098-0.964,0.294-1.355c0.195-0.391,0.469-0.694,0.822-0.907
		c0.352-0.214,0.756-0.32,1.211-0.32c0.413,0,0.772,0.089,1.078,0.267c0.306,0.178,0.537,0.431,0.693,0.758v-0.576
		c0-0.128,0.038-0.231,0.112-0.31c0.075-0.078,0.18-0.117,0.315-0.117C277.176,201.607,277.283,201.646,277.361,201.724z
		 M276.187,205.541c0.284-0.331,0.427-0.788,0.427-1.372c0-0.576-0.14-1.03-0.421-1.361c-0.281-0.331-0.674-0.497-1.18-0.497
		s-0.901,0.166-1.19,0.497c-0.288,0.331-0.433,0.785-0.433,1.361c0,0.584,0.145,1.041,0.433,1.372
		c0.289,0.331,0.685,0.496,1.19,0.496C275.511,206.037,275.902,205.871,276.187,205.541z"/>
	<path fill="#FFFFFF" stroke="#FFFFFF" stroke-miterlimit="10" d="M279.026,208.908c-0.085,0-0.158-0.027-0.219-0.08
		c-0.061-0.054-0.091-0.123-0.091-0.208c0-0.029,0.015-0.086,0.043-0.171c0.59-1.416,0.886-2.864,0.886-4.345
		c0-1.48-0.296-2.928-0.886-4.344c-0.028-0.086-0.043-0.142-0.043-0.171c0-0.085,0.03-0.155,0.091-0.208s0.134-0.08,0.219-0.08
		c0.163,0,0.291,0.082,0.385,0.245c0.746,1.452,1.12,2.971,1.12,4.558s-0.374,3.106-1.12,4.558
		C279.317,208.826,279.189,208.908,279.026,208.908z"/>
</g>
<path fill="#428BCA" stroke="#428BCA" stroke-width="2" stroke-miterlimit="10" d="M161.044,377.314
	c0,5.053-4.096,9.149-9.149,9.149H54.821c-5.054,0-9.15-4.097-9.15-9.149v-34.371c0-5.053,4.096-9.149,9.15-9.149h97.073
	c5.054,0,9.149,4.097,9.149,9.149V377.314z"/>
<g>
	<path fill="#FFFFFF" stroke="#FFFFFF" stroke-miterlimit="10" d="M68.205,363.066c-0.082-0.075-0.123-0.172-0.123-0.294v-6.725
		c0-0.135,0.039-0.243,0.118-0.325c0.078-0.082,0.185-0.123,0.32-0.123c0.135,0,0.242,0.041,0.32,0.123s0.118,0.19,0.118,0.325
		v6.383h3.448c0.128,0,0.228,0.032,0.299,0.097c0.071,0.063,0.107,0.157,0.107,0.277c0,0.121-0.036,0.213-0.107,0.277
		c-0.071,0.063-0.171,0.097-0.299,0.097h-3.896C68.388,363.179,68.287,363.142,68.205,363.066z"/>
	<path fill="#FFFFFF" stroke="#FFFFFF" stroke-miterlimit="10" d="M73.74,356.603c-0.107-0.099-0.16-0.23-0.16-0.395
		c0-0.156,0.053-0.284,0.16-0.385c0.106-0.1,0.245-0.148,0.416-0.148s0.31,0.049,0.417,0.148c0.107,0.101,0.16,0.229,0.16,0.385
		c0,0.164-0.053,0.296-0.16,0.395c-0.107,0.1-0.246,0.149-0.417,0.149S73.846,356.702,73.74,356.603z M73.841,363.119
		c-0.082-0.074-0.123-0.179-0.123-0.314V358.3c0-0.135,0.041-0.239,0.123-0.314c0.082-0.075,0.187-0.112,0.315-0.112
		c0.128,0,0.231,0.037,0.31,0.112c0.079,0.075,0.118,0.18,0.118,0.314v4.505c0,0.143-0.039,0.249-0.118,0.32
		c-0.078,0.071-0.181,0.106-0.31,0.106C74.028,363.231,73.923,363.194,73.841,363.119z"/>
	<path fill="#FFFFFF" stroke="#FFFFFF" stroke-miterlimit="10" d="M80.678,359.911v2.894c0,0.136-0.038,0.24-0.112,0.314
		c-0.075,0.075-0.18,0.112-0.315,0.112c-0.136,0-0.242-0.037-0.32-0.112c-0.079-0.074-0.118-0.179-0.118-0.314v-2.84
		c0-0.483-0.094-0.835-0.283-1.057c-0.188-0.22-0.489-0.331-0.901-0.331c-0.477,0-0.858,0.146-1.142,0.438
		c-0.285,0.292-0.427,0.688-0.427,1.186v2.604c0,0.136-0.038,0.24-0.112,0.314c-0.075,0.075-0.18,0.112-0.315,0.112
		c-0.135,0-0.242-0.037-0.32-0.112c-0.079-0.074-0.118-0.179-0.118-0.314V358.3c0-0.128,0.039-0.23,0.118-0.31
		c0.078-0.078,0.185-0.117,0.32-0.117c0.128,0,0.229,0.039,0.304,0.117c0.075,0.079,0.112,0.178,0.112,0.3v0.543
		c0.171-0.32,0.409-0.563,0.715-0.73c0.306-0.167,0.655-0.251,1.046-0.251C80.055,357.852,80.678,358.538,80.678,359.911z"/>
	<path fill="#FFFFFF" stroke="#FFFFFF" stroke-miterlimit="10" d="M86.485,362.067c0.057,0.064,0.085,0.146,0.085,0.246
		c0,0.179-0.125,0.342-0.374,0.491c-0.256,0.149-0.526,0.262-0.811,0.337c-0.285,0.074-0.563,0.111-0.833,0.111
		c-0.804,0-1.439-0.238-1.905-0.715c-0.466-0.477-0.699-1.136-0.699-1.976c0-0.533,0.103-1.004,0.309-1.413
		c0.207-0.41,0.497-0.729,0.87-0.956c0.374-0.228,0.799-0.342,1.275-0.342c0.676,0,1.213,0.221,1.612,0.661
		c0.398,0.442,0.598,1.04,0.598,1.794c0,0.143-0.028,0.246-0.085,0.31c-0.057,0.064-0.149,0.097-0.277,0.097h-3.438
		c0.064,1.224,0.644,1.836,1.74,1.836c0.277,0,0.516-0.037,0.715-0.112c0.199-0.074,0.413-0.177,0.641-0.305
		c0.185-0.106,0.31-0.159,0.374-0.159C86.36,361.973,86.428,362.004,86.485,362.067z M83.32,358.951
		c-0.274,0.285-0.436,0.687-0.486,1.206h3.021c-0.015-0.526-0.146-0.93-0.395-1.211s-0.598-0.422-1.046-0.422
		C83.958,358.524,83.594,358.666,83.32,358.951z"/>
	<path fill="#FFFFFF" stroke="#FFFFFF" stroke-miterlimit="10" d="M91.96,359.901v2.903c0,0.128-0.038,0.231-0.112,0.31
		s-0.176,0.117-0.305,0.117c-0.128,0-0.23-0.039-0.309-0.117s-0.117-0.182-0.117-0.31v-0.512c-0.136,0.305-0.342,0.542-0.619,0.709
		c-0.277,0.168-0.598,0.251-0.961,0.251c-0.334,0-0.642-0.067-0.923-0.202c-0.281-0.136-0.503-0.325-0.667-0.566
		c-0.164-0.241-0.246-0.509-0.246-0.801c0-0.391,0.1-0.695,0.299-0.913c0.199-0.216,0.526-0.373,0.982-0.469
		c0.455-0.097,1.088-0.145,1.9-0.145h0.235v-0.352c0-0.428-0.087-0.74-0.262-0.939c-0.175-0.2-0.457-0.3-0.849-0.3
		c-0.484,0-0.975,0.133-1.473,0.396c-0.192,0.121-0.328,0.181-0.406,0.181c-0.085,0-0.156-0.031-0.213-0.095
		c-0.057-0.064-0.085-0.146-0.085-0.246s0.03-0.187,0.09-0.262c0.06-0.074,0.158-0.15,0.294-0.229
		c0.249-0.143,0.532-0.255,0.848-0.337c0.316-0.081,0.631-0.122,0.945-0.122C91.309,357.852,91.96,358.535,91.96,359.901z
		 M90.706,362.138c0.274-0.289,0.411-0.659,0.411-1.115v-0.31h-0.192c-0.626,0-1.104,0.026-1.43,0.08
		c-0.328,0.053-0.561,0.142-0.699,0.267c-0.139,0.124-0.208,0.309-0.208,0.55c0,0.277,0.102,0.507,0.305,0.688
		c0.202,0.181,0.457,0.271,0.763,0.271C90.081,362.569,90.432,362.426,90.706,362.138z"/>
	<path fill="#FFFFFF" stroke="#FFFFFF" stroke-miterlimit="10" d="M96.561,358.236c0,0.113-0.032,0.204-0.096,0.272
		c-0.064,0.066-0.174,0.108-0.331,0.122l-0.32,0.032c-0.478,0.042-0.831,0.212-1.063,0.507c-0.231,0.296-0.347,0.643-0.347,1.041
		v2.594c0,0.143-0.039,0.249-0.117,0.32c-0.079,0.071-0.182,0.106-0.31,0.106c-0.128,0-0.233-0.037-0.315-0.112
		c-0.082-0.074-0.123-0.179-0.123-0.314V358.3c0-0.135,0.043-0.239,0.128-0.314c0.085-0.075,0.188-0.112,0.31-0.112
		c0.114,0,0.21,0.037,0.288,0.112c0.079,0.075,0.118,0.177,0.118,0.305v0.597c0.149-0.313,0.361-0.551,0.635-0.715
		s0.588-0.26,0.944-0.288l0.149-0.011C96.412,357.852,96.561,357.973,96.561,358.236z"/>
	<path fill="#FFFFFF" stroke="#FFFFFF" stroke-miterlimit="10" d="M100.313,363.061c-0.082-0.078-0.123-0.182-0.123-0.31v-6.671
		c0-0.128,0.041-0.231,0.123-0.311c0.082-0.077,0.19-0.117,0.325-0.117h3.993c0.128,0,0.228,0.033,0.298,0.097
		c0.072,0.064,0.107,0.153,0.107,0.267c0,0.114-0.036,0.203-0.107,0.267c-0.07,0.064-0.17,0.097-0.298,0.097h-3.576v2.615h3.362
		c0.128,0,0.228,0.032,0.299,0.096c0.071,0.064,0.106,0.153,0.106,0.267c0,0.114-0.036,0.203-0.106,0.268
		c-0.071,0.064-0.171,0.096-0.299,0.096h-3.362v2.732h3.576c0.128,0,0.228,0.031,0.298,0.091c0.072,0.061,0.107,0.151,0.107,0.272
		c0,0.114-0.036,0.202-0.107,0.267c-0.07,0.063-0.17,0.097-0.298,0.097h-3.993C100.504,363.179,100.396,363.14,100.313,363.061z"/>
	<path fill="#FFFFFF" stroke="#FFFFFF" stroke-miterlimit="10" d="M110.758,359.911v2.894c0,0.136-0.037,0.24-0.112,0.314
		c-0.075,0.075-0.18,0.112-0.315,0.112c-0.135,0-0.242-0.037-0.32-0.112c-0.078-0.074-0.117-0.179-0.117-0.314v-2.84
		c0-0.483-0.095-0.835-0.283-1.057c-0.188-0.22-0.489-0.331-0.902-0.331c-0.477,0-0.857,0.146-1.142,0.438
		c-0.285,0.292-0.427,0.688-0.427,1.186v2.604c0,0.136-0.037,0.24-0.112,0.314c-0.074,0.075-0.18,0.112-0.315,0.112
		c-0.135,0-0.242-0.037-0.32-0.112c-0.078-0.074-0.118-0.179-0.118-0.314V358.3c0-0.128,0.04-0.23,0.118-0.31
		c0.079-0.078,0.185-0.117,0.32-0.117c0.128,0,0.229,0.039,0.305,0.117c0.074,0.079,0.112,0.178,0.112,0.3v0.543
		c0.17-0.32,0.409-0.563,0.715-0.73c0.305-0.167,0.654-0.251,1.046-0.251C110.135,357.852,110.758,358.538,110.758,359.911z"/>
	<path fill="#FFFFFF" stroke="#FFFFFF" stroke-miterlimit="10" d="M116.458,357.884c0.106,0,0.203,0.036,0.288,0.106
		c0.085,0.071,0.128,0.16,0.128,0.267c0,0.064-0.014,0.121-0.042,0.171l-2.082,4.483c-0.042,0.094-0.106,0.166-0.192,0.219
		c-0.085,0.054-0.178,0.08-0.278,0.08c-0.092,0-0.181-0.026-0.267-0.08c-0.085-0.053-0.153-0.125-0.202-0.219l-2.072-4.483
		c-0.028-0.05-0.042-0.103-0.042-0.159c0-0.106,0.049-0.199,0.145-0.278c0.096-0.078,0.2-0.117,0.314-0.117
		c0.071,0,0.141,0.021,0.208,0.063c0.068,0.043,0.119,0.104,0.155,0.182l1.783,4.003l1.782-3.981
		C116.163,357.97,116.288,357.884,116.458,357.884z"/>
	<path fill="#FFFFFF" stroke="#FFFFFF" stroke-miterlimit="10" d="M121.987,362.067c0.058,0.064,0.086,0.146,0.086,0.246
		c0,0.179-0.125,0.342-0.374,0.491c-0.256,0.149-0.526,0.262-0.811,0.337c-0.286,0.074-0.563,0.111-0.833,0.111
		c-0.804,0-1.439-0.238-1.905-0.715c-0.466-0.477-0.699-1.136-0.699-1.976c0-0.533,0.104-1.004,0.31-1.413
		c0.207-0.41,0.497-0.729,0.871-0.956c0.373-0.228,0.798-0.342,1.275-0.342c0.676,0,1.213,0.221,1.611,0.661
		c0.399,0.442,0.598,1.04,0.598,1.794c0,0.143-0.028,0.246-0.085,0.31c-0.058,0.064-0.15,0.097-0.278,0.097h-3.437
		c0.064,1.224,0.644,1.836,1.739,1.836c0.278,0,0.516-0.037,0.716-0.112c0.199-0.074,0.412-0.177,0.64-0.305
		c0.186-0.106,0.31-0.159,0.374-0.159C121.863,361.973,121.931,362.004,121.987,362.067z M118.822,358.951
		c-0.274,0.285-0.436,0.687-0.486,1.206h3.021c-0.014-0.526-0.146-0.93-0.395-1.211c-0.25-0.281-0.598-0.422-1.046-0.422
		C119.46,358.524,119.096,358.666,118.822,358.951z"/>
	<path fill="#FFFFFF" stroke="#FFFFFF" stroke-miterlimit="10" d="M123.508,363.119c-0.082-0.074-0.123-0.179-0.123-0.314v-6.778
		c0-0.135,0.041-0.24,0.123-0.314c0.082-0.075,0.187-0.112,0.315-0.112c0.121,0,0.223,0.037,0.305,0.112
		c0.081,0.074,0.122,0.18,0.122,0.314v6.778c0,0.136-0.041,0.24-0.122,0.314c-0.082,0.075-0.184,0.112-0.305,0.112
		C123.695,363.231,123.59,363.194,123.508,363.119z"/>
	<path fill="#FFFFFF" stroke="#FFFFFF" stroke-miterlimit="10" d="M126.721,362.923c-0.374-0.221-0.662-0.536-0.865-0.946
		c-0.202-0.408-0.304-0.883-0.304-1.424c0-0.542,0.102-1.017,0.304-1.426c0.203-0.408,0.491-0.724,0.865-0.944
		c0.374-0.221,0.806-0.331,1.297-0.331c0.492,0,0.925,0.11,1.302,0.331c0.378,0.221,0.667,0.536,0.87,0.944
		c0.203,0.409,0.304,0.884,0.304,1.426c0,0.541-0.101,1.016-0.304,1.424c-0.203,0.41-0.492,0.726-0.87,0.946
		c-0.377,0.22-0.811,0.33-1.302,0.33C127.527,363.253,127.095,363.143,126.721,362.923z M129.198,362.03
		c0.274-0.338,0.411-0.831,0.411-1.478c0-0.634-0.138-1.122-0.416-1.468s-0.668-0.519-1.174-0.519c-0.505,0-0.896,0.173-1.174,0.519
		c-0.277,0.346-0.416,0.834-0.416,1.468c0,0.641,0.137,1.131,0.411,1.473s0.667,0.513,1.179,0.513S128.924,362.368,129.198,362.03z"
		/>
	<path fill="#FFFFFF" stroke="#FFFFFF" stroke-miterlimit="10" d="M135.608,358.193c0.349,0.228,0.62,0.546,0.812,0.956
		c0.192,0.409,0.288,0.884,0.288,1.425c0,0.54-0.096,1.012-0.288,1.414s-0.461,0.714-0.806,0.935c-0.346,0.22-0.749,0.33-1.211,0.33
		c-0.406,0-0.76-0.089-1.063-0.267c-0.302-0.179-0.532-0.43-0.689-0.758v2.508c0,0.128-0.037,0.23-0.111,0.305
		c-0.075,0.075-0.18,0.112-0.315,0.112c-0.136,0-0.242-0.039-0.32-0.117c-0.078-0.079-0.118-0.179-0.118-0.3V358.3
		c0-0.128,0.04-0.23,0.118-0.31c0.078-0.078,0.185-0.117,0.32-0.117c0.135,0,0.24,0.039,0.315,0.117
		c0.074,0.079,0.111,0.182,0.111,0.31v0.576c0.157-0.327,0.387-0.579,0.689-0.758c0.302-0.177,0.657-0.267,1.063-0.267
		C134.857,357.852,135.259,357.966,135.608,358.193z M135.405,362.025c0.278-0.342,0.416-0.826,0.416-1.451
		c0-0.627-0.138-1.115-0.416-1.469c-0.278-0.352-0.668-0.528-1.174-0.528c-0.505,0-0.895,0.171-1.169,0.513
		s-0.411,0.829-0.411,1.463s0.137,1.122,0.411,1.468c0.274,0.345,0.664,0.518,1.169,0.518
		C134.737,362.538,135.127,362.367,135.405,362.025z"/>
	<path fill="#FFFFFF" stroke="#FFFFFF" stroke-miterlimit="10" d="M142.226,362.067c0.058,0.064,0.086,0.146,0.086,0.246
		c0,0.179-0.124,0.342-0.374,0.491c-0.256,0.149-0.526,0.262-0.811,0.337c-0.285,0.074-0.563,0.111-0.833,0.111
		c-0.805,0-1.439-0.238-1.906-0.715c-0.466-0.477-0.698-1.136-0.698-1.976c0-0.533,0.103-1.004,0.31-1.413
		c0.206-0.41,0.496-0.729,0.87-0.956c0.373-0.228,0.798-0.342,1.275-0.342c0.676,0,1.213,0.221,1.611,0.661
		c0.399,0.442,0.598,1.04,0.598,1.794c0,0.143-0.028,0.246-0.085,0.31c-0.057,0.064-0.149,0.097-0.277,0.097h-3.438
		c0.064,1.224,0.645,1.836,1.74,1.836c0.277,0,0.516-0.037,0.715-0.112c0.199-0.074,0.413-0.177,0.641-0.305
		c0.186-0.106,0.31-0.159,0.374-0.159C142.102,361.973,142.169,362.004,142.226,362.067z M139.062,358.951
		c-0.274,0.285-0.437,0.687-0.486,1.206h3.021c-0.014-0.526-0.146-0.93-0.395-1.211s-0.598-0.422-1.046-0.422
		C139.699,358.524,139.335,358.666,139.062,358.951z"/>
</g>
<path fill="#428BCA" stroke="#428BCA" stroke-width="2" stroke-miterlimit="10" d="M161.044,456.096
	c0,5.054-4.096,9.149-9.149,9.149H54.821c-5.054,0-9.15-4.096-9.15-9.149v-34.37c0-5.054,4.096-9.149,9.15-9.149h97.073
	c5.054,0,9.149,4.096,9.149,9.149V456.096z"/>
<g>
	<path fill="#FFFFFF" stroke="#FFFFFF" stroke-miterlimit="10" d="M66.763,434.14c0.071,0.082,0.107,0.19,0.107,0.325v6.736
		c0,0.135-0.037,0.243-0.112,0.325c-0.075,0.082-0.18,0.123-0.315,0.123c-0.135,0-0.252-0.061-0.353-0.182l-4.43-5.925v5.658
		c0,0.135-0.037,0.243-0.112,0.325c-0.075,0.082-0.176,0.123-0.304,0.123c-0.128,0-0.228-0.041-0.299-0.123s-0.107-0.19-0.107-0.325
		v-6.736c0-0.135,0.038-0.243,0.113-0.325c0.074-0.082,0.179-0.123,0.314-0.123c0.142,0,0.263,0.061,0.363,0.182l4.419,5.925v-5.658
		c0-0.135,0.038-0.243,0.112-0.325c0.075-0.082,0.177-0.123,0.305-0.123S66.692,434.058,66.763,434.14z"/>
	<path fill="#FFFFFF" stroke="#FFFFFF" stroke-miterlimit="10" d="M69.458,441.34c-0.374-0.221-0.662-0.536-0.865-0.945
		c-0.203-0.409-0.304-0.883-0.304-1.425c0-0.541,0.102-1.017,0.304-1.425c0.203-0.409,0.491-0.725,0.865-0.945
		c0.374-0.22,0.806-0.33,1.297-0.33s0.925,0.11,1.302,0.33c0.377,0.221,0.667,0.536,0.87,0.945c0.203,0.408,0.304,0.884,0.304,1.425
		c0,0.542-0.102,1.016-0.304,1.425c-0.203,0.409-0.493,0.725-0.87,0.945s-0.811,0.331-1.302,0.331S69.832,441.561,69.458,441.34z
		 M71.935,440.448c0.274-0.338,0.411-0.831,0.411-1.479c0-0.634-0.138-1.122-0.416-1.468c-0.277-0.345-0.669-0.518-1.174-0.518
		s-0.896,0.173-1.174,0.518c-0.277,0.346-0.416,0.834-0.416,1.468c0,0.641,0.137,1.131,0.411,1.473
		c0.274,0.342,0.667,0.514,1.179,0.514S71.661,440.786,71.935,440.448z"/>
	<path fill="#FFFFFF" stroke="#FFFFFF" stroke-miterlimit="10" d="M77.544,436.653c0,0.114-0.032,0.205-0.096,0.272
		c-0.064,0.067-0.175,0.109-0.331,0.122l-0.32,0.033c-0.477,0.042-0.831,0.211-1.062,0.506c-0.231,0.296-0.347,0.643-0.347,1.041
		v2.595c0,0.142-0.039,0.248-0.118,0.32c-0.078,0.07-0.181,0.106-0.309,0.106c-0.128,0-0.233-0.038-0.315-0.113
		c-0.082-0.074-0.123-0.179-0.123-0.313v-4.505c0-0.136,0.043-0.24,0.128-0.315c0.086-0.075,0.189-0.112,0.31-0.112
		c0.113,0,0.21,0.037,0.288,0.112s0.117,0.177,0.117,0.305v0.598c0.15-0.313,0.361-0.552,0.635-0.715
		c0.274-0.164,0.589-0.26,0.945-0.288l0.149-0.012C77.395,436.27,77.544,436.39,77.544,436.653z"/>
	<path fill="#FFFFFF" stroke="#FFFFFF" stroke-miterlimit="10" d="M85.806,438.329v2.894c0,0.135-0.039,0.239-0.118,0.313
		c-0.077,0.075-0.182,0.113-0.31,0.113s-0.232-0.038-0.314-0.113c-0.082-0.074-0.122-0.179-0.122-0.313v-2.871
		c0-0.478-0.086-0.822-0.257-1.036c-0.17-0.214-0.437-0.321-0.8-0.321c-0.435,0-0.776,0.146-1.024,0.438
		c-0.25,0.292-0.374,0.687-0.374,1.186v2.604c0,0.135-0.042,0.239-0.124,0.313c-0.082,0.075-0.186,0.113-0.314,0.113
		c-0.128,0-0.231-0.038-0.31-0.113c-0.079-0.074-0.118-0.179-0.118-0.313v-2.871c0-0.478-0.085-0.822-0.256-1.036
		c-0.17-0.214-0.441-0.321-0.812-0.321c-0.426,0-0.767,0.146-1.019,0.438c-0.252,0.292-0.379,0.687-0.379,1.186v2.604
		c0,0.135-0.039,0.239-0.118,0.313c-0.078,0.075-0.181,0.113-0.309,0.113c-0.128,0-0.233-0.038-0.315-0.113
		c-0.082-0.074-0.123-0.179-0.123-0.313v-4.505c0-0.128,0.041-0.231,0.123-0.31c0.082-0.078,0.187-0.118,0.315-0.118
		c0.121,0,0.22,0.037,0.299,0.112c0.078,0.075,0.117,0.177,0.117,0.305v0.513c0.156-0.307,0.374-0.541,0.652-0.705
		c0.277-0.163,0.597-0.245,0.96-0.245c0.81,0,1.34,0.341,1.591,1.024c0.149-0.313,0.376-0.563,0.682-0.748
		c0.307-0.185,0.655-0.276,1.047-0.276C85.229,436.27,85.806,436.956,85.806,438.329z"/>
	<path fill="#FFFFFF" stroke="#FFFFFF" stroke-miterlimit="10" d="M91.464,438.318v2.904c0,0.128-0.038,0.23-0.112,0.31
		c-0.075,0.077-0.177,0.117-0.305,0.117s-0.23-0.04-0.309-0.117c-0.079-0.079-0.118-0.182-0.118-0.31v-0.513
		c-0.135,0.306-0.342,0.542-0.619,0.71c-0.278,0.167-0.598,0.251-0.961,0.251c-0.334,0-0.642-0.068-0.923-0.203
		c-0.281-0.136-0.503-0.324-0.667-0.565c-0.164-0.242-0.246-0.51-0.246-0.802c0-0.391,0.1-0.695,0.299-0.912
		c0.199-0.216,0.526-0.373,0.982-0.47c0.455-0.096,1.089-0.145,1.9-0.145h0.234v-0.352c0-0.427-0.087-0.739-0.261-0.939
		c-0.175-0.199-0.457-0.299-0.849-0.299c-0.484,0-0.975,0.133-1.473,0.396c-0.192,0.121-0.327,0.181-0.406,0.181
		c-0.085,0-0.156-0.031-0.213-0.096c-0.057-0.063-0.085-0.146-0.085-0.245c0-0.101,0.03-0.188,0.09-0.263
		c0.061-0.074,0.159-0.15,0.294-0.229c0.249-0.143,0.532-0.255,0.848-0.337c0.316-0.081,0.631-0.122,0.945-0.122
		C90.813,436.27,91.464,436.953,91.464,438.318z M90.209,440.555c0.274-0.288,0.411-0.659,0.411-1.115v-0.31h-0.192
		c-0.626,0-1.104,0.027-1.43,0.081c-0.328,0.053-0.561,0.141-0.699,0.266c-0.139,0.125-0.208,0.309-0.208,0.55
		c0,0.278,0.102,0.507,0.304,0.688c0.203,0.182,0.458,0.272,0.764,0.272C89.584,440.987,89.936,440.844,90.209,440.555z"/>
	<path fill="#FFFFFF" stroke="#FFFFFF" stroke-miterlimit="10" d="M93.166,441.536c-0.082-0.074-0.123-0.179-0.123-0.313v-6.779
		c0-0.135,0.041-0.239,0.123-0.314c0.082-0.074,0.187-0.112,0.315-0.112c0.121,0,0.223,0.038,0.305,0.112
		c0.081,0.075,0.122,0.18,0.122,0.314v6.779c0,0.135-0.041,0.239-0.122,0.313c-0.082,0.075-0.184,0.113-0.305,0.113
		C93.353,441.649,93.248,441.611,93.166,441.536z"/>
	<path fill="#FFFFFF" stroke="#FFFFFF" stroke-miterlimit="10" d="M95.542,435.02c-0.106-0.099-0.16-0.23-0.16-0.395
		c0-0.156,0.054-0.284,0.16-0.384s0.246-0.149,0.416-0.149s0.31,0.05,0.417,0.149c0.106,0.1,0.16,0.228,0.16,0.384
		c0,0.164-0.053,0.296-0.16,0.395c-0.107,0.1-0.246,0.15-0.417,0.15S95.648,435.119,95.542,435.02z M95.643,441.536
		c-0.082-0.074-0.123-0.179-0.123-0.313v-4.505c0-0.136,0.041-0.24,0.123-0.315s0.187-0.112,0.315-0.112s0.231,0.037,0.31,0.112
		s0.117,0.18,0.117,0.315v4.505c0,0.142-0.039,0.248-0.117,0.32c-0.079,0.07-0.182,0.106-0.31,0.106S95.725,441.611,95.643,441.536z
		"/>
	<path fill="#FFFFFF" stroke="#FFFFFF" stroke-miterlimit="10" d="M102.095,441.004c0.064,0.06,0.096,0.144,0.096,0.25
		c0,0.107-0.032,0.19-0.096,0.251s-0.156,0.091-0.278,0.091h-3.735c-0.122,0-0.221-0.037-0.299-0.112
		c-0.078-0.075-0.117-0.165-0.117-0.271c0-0.114,0.042-0.225,0.128-0.331l3.159-3.8h-2.925c-0.121,0-0.215-0.03-0.283-0.091
		c-0.067-0.062-0.101-0.141-0.101-0.24c0-0.107,0.034-0.192,0.101-0.257c0.068-0.063,0.163-0.096,0.283-0.096h3.619
		c0.128,0,0.231,0.037,0.31,0.111c0.079,0.075,0.118,0.166,0.118,0.272c0,0.114-0.043,0.225-0.128,0.331l-3.17,3.8h3.042
		C101.939,440.912,102.031,440.943,102.095,441.004z"/>
	<path fill="#FFFFFF" stroke="#FFFFFF" stroke-miterlimit="10" d="M107.475,440.485c0.057,0.063,0.085,0.146,0.085,0.245
		c0,0.179-0.125,0.342-0.374,0.492c-0.256,0.148-0.526,0.261-0.811,0.336c-0.285,0.075-0.563,0.112-0.833,0.112
		c-0.804,0-1.439-0.238-1.905-0.715c-0.466-0.478-0.699-1.136-0.699-1.976c0-0.534,0.104-1.005,0.31-1.414
		c0.206-0.409,0.497-0.729,0.87-0.956c0.373-0.228,0.798-0.341,1.275-0.341c0.676,0,1.213,0.221,1.611,0.661
		c0.399,0.442,0.598,1.039,0.598,1.794c0,0.142-0.028,0.245-0.085,0.31c-0.057,0.063-0.15,0.096-0.278,0.096h-3.437
		c0.064,1.225,0.644,1.836,1.739,1.836c0.278,0,0.516-0.037,0.716-0.112c0.199-0.074,0.413-0.176,0.64-0.305
		c0.186-0.106,0.31-0.159,0.374-0.159C107.351,440.39,107.418,440.421,107.475,440.485z M104.311,437.368
		c-0.274,0.285-0.437,0.688-0.486,1.206h3.021c-0.014-0.526-0.146-0.93-0.395-1.21c-0.249-0.282-0.598-0.423-1.046-0.423
		C104.948,436.941,104.583,437.084,104.311,437.368z"/>
	<path fill="#FFFFFF" stroke="#FFFFFF" stroke-miterlimit="10" d="M113.693,441.526c-0.082-0.082-0.123-0.19-0.123-0.325v-6.384
		h-2.295c-0.128,0-0.228-0.032-0.299-0.096c-0.071-0.064-0.107-0.157-0.107-0.278c0-0.12,0.036-0.213,0.107-0.276
		c0.071-0.064,0.171-0.097,0.299-0.097h5.476c0.129,0,0.228,0.032,0.299,0.097c0.071,0.063,0.106,0.156,0.106,0.276
		c0,0.121-0.036,0.214-0.106,0.278c-0.071,0.063-0.17,0.096-0.299,0.096h-2.295v6.384c0,0.135-0.039,0.243-0.117,0.325
		c-0.079,0.082-0.186,0.123-0.321,0.123C113.884,441.649,113.775,441.608,113.693,441.526z"/>
	<path fill="#FFFFFF" stroke="#FFFFFF" stroke-miterlimit="10" d="M118.059,441.34c-0.374-0.221-0.662-0.536-0.865-0.945
		c-0.202-0.409-0.304-0.883-0.304-1.425c0-0.541,0.102-1.017,0.304-1.425c0.203-0.409,0.491-0.725,0.865-0.945
		c0.374-0.22,0.806-0.33,1.297-0.33c0.492,0,0.925,0.11,1.302,0.33c0.377,0.221,0.667,0.536,0.87,0.945
		c0.204,0.408,0.305,0.884,0.305,1.425c0,0.542-0.101,1.016-0.305,1.425c-0.202,0.409-0.492,0.725-0.87,0.945
		s-0.811,0.331-1.302,0.331C118.865,441.671,118.432,441.561,118.059,441.34z M120.535,440.448c0.274-0.338,0.411-0.831,0.411-1.479
		c0-0.634-0.139-1.122-0.417-1.468c-0.278-0.345-0.668-0.518-1.174-0.518c-0.505,0-0.896,0.173-1.174,0.518
		c-0.278,0.346-0.417,0.834-0.417,1.468c0,0.641,0.137,1.131,0.411,1.473s0.667,0.514,1.179,0.514S120.261,440.786,120.535,440.448z
		"/>
	<path fill="#FFFFFF" stroke="#FFFFFF" stroke-miterlimit="10" d="M133.002,434.14c0.075,0.082,0.112,0.19,0.112,0.325v6.758
		c0,0.128-0.036,0.23-0.106,0.31c-0.071,0.077-0.171,0.117-0.299,0.117c-0.128,0-0.224-0.04-0.288-0.117
		c-0.064-0.079-0.096-0.182-0.096-0.31v-5.455l-2.316,4.44c-0.1,0.206-0.245,0.31-0.438,0.31c-0.185,0-0.331-0.104-0.437-0.31
		l-2.328-4.387v5.401c0,0.128-0.034,0.23-0.102,0.31c-0.068,0.077-0.165,0.117-0.293,0.117c-0.128,0-0.228-0.04-0.298-0.117
		c-0.071-0.079-0.107-0.182-0.107-0.31v-6.758c0-0.135,0.04-0.243,0.118-0.325s0.185-0.123,0.32-0.123
		c0.178,0,0.32,0.104,0.427,0.31l2.712,5.198l2.679-5.198c0.058-0.113,0.119-0.193,0.187-0.24c0.068-0.046,0.147-0.069,0.241-0.069
		C132.823,434.017,132.928,434.058,133.002,434.14z"/>
	<path fill="#FFFFFF" stroke="#FFFFFF" stroke-miterlimit="10" d="M140.656,434.06c0.067-0.043,0.14-0.064,0.219-0.064
		c0.113,0,0.215,0.037,0.304,0.112c0.09,0.075,0.134,0.166,0.134,0.272c0,0.057-0.015,0.114-0.043,0.171l-3.063,6.811
		c-0.043,0.092-0.106,0.163-0.191,0.213c-0.086,0.05-0.179,0.075-0.278,0.075s-0.191-0.025-0.277-0.075s-0.149-0.121-0.192-0.213
		l-3.053-6.811c-0.021-0.057-0.032-0.11-0.032-0.161c0-0.113,0.046-0.207,0.138-0.282s0.196-0.112,0.31-0.112
		c0.171,0,0.295,0.082,0.374,0.246l2.754,6.224l2.743-6.224C140.537,434.163,140.588,434.103,140.656,434.06z"/>
	<path fill="#FFFFFF" stroke="#FFFFFF" stroke-miterlimit="10" d="M143.533,441.217c-0.52-0.31-0.92-0.754-1.201-1.335
		c-0.281-0.579-0.422-1.264-0.422-2.054c0-0.783,0.141-1.465,0.422-2.044c0.281-0.581,0.682-1.024,1.201-1.335
		c0.52-0.31,1.135-0.465,1.847-0.465c0.477,0,0.926,0.076,1.35,0.229s0.792,0.373,1.105,0.657c0.113,0.106,0.17,0.23,0.17,0.374
		c0,0.1-0.028,0.186-0.085,0.261c-0.057,0.074-0.125,0.112-0.203,0.112c-0.085,0-0.188-0.039-0.309-0.117
		c-0.363-0.284-0.692-0.484-0.988-0.598c-0.295-0.114-0.635-0.171-1.02-0.171c-0.824,0-1.46,0.268-1.905,0.806
		c-0.444,0.538-0.667,1.3-0.667,2.29c0,0.996,0.223,1.763,0.667,2.3c0.445,0.537,1.081,0.806,1.905,0.806
		c0.378,0,0.716-0.057,1.015-0.17c0.299-0.114,0.63-0.313,0.993-0.599c0.12-0.077,0.224-0.117,0.309-0.117
		c0.078,0,0.146,0.035,0.203,0.106c0.057,0.072,0.085,0.16,0.085,0.267c0,0.144-0.057,0.268-0.17,0.374
		c-0.313,0.284-0.682,0.503-1.105,0.656c-0.424,0.154-0.873,0.229-1.35,0.229C144.668,441.681,144.053,441.526,143.533,441.217z"/>
</g>
<g>
	<g>
		<line fill="none" stroke="#428BCA" stroke-width="4" stroke-miterlimit="10" x1="103.429" y1="71.423" x2="103.429" y2="89.603"/>
		<g>
			<polygon fill="#428BCA" points="98.442,88.144 103.429,96.779 108.415,88.144 			"/>
		</g>
	</g>
</g>
<g>
	<g>
		
			<line fill="none" stroke="#428BCA" stroke-width="4" stroke-miterlimit="10" x1="103.429" y1="308.04" x2="103.429" y2="326.219"/>
		<g>
			<polygon fill="#428BCA" points="98.442,324.76 103.429,333.395 108.415,324.76 			"/>
		</g>
	</g>
</g>
<g>
	<g>
		
			<line fill="none" stroke="#428BCA" stroke-width="4" stroke-miterlimit="10" x1="103.429" y1="386.464" x2="103.429" y2="404.643"/>
		<g>
			<polygon fill="#428BCA" points="98.442,403.184 103.429,411.818 108.415,403.184 			"/>
		</g>
	</g>
</g>
<line fill="none" stroke="#428BCA" stroke-width="4" stroke-miterlimit="10" x1="161.044" y1="123.113" x2="251.962" y2="123.113"/>
<g>
	<g>
		
			<line fill="none" stroke="#428BCA" stroke-width="4" stroke-miterlimit="10" x1="250.441" y1="123.113" x2="250.441" y2="163.815"/>
		<g>
			<polygon fill="#428BCA" points="245.455,162.356 250.441,170.992 255.428,162.356 			"/>
		</g>
	</g>
</g>
<line fill="none" stroke="#428BCA" stroke-width="4" stroke-miterlimit="10" x1="251.198" y1="223.662" x2="251.198" y2="281.705"/>
<g>
	<g>
		
			<line fill="none" stroke="#428BCA" stroke-width="4" stroke-miterlimit="10" x1="252.725" y1="281.705" x2="168.242" y2="281.705"/>
		<g>
			<polygon fill="#428BCA" points="169.701,276.719 161.066,281.705 169.701,286.691 			"/>
		</g>
	</g>
</g>
<g>
	<g>
		
			<line fill="none" stroke="#428BCA" stroke-width="4" stroke-miterlimit="10" x1="103.429" y1="149.448" x2="103.429" y2="248.195"/>
		<g>
			<polygon fill="#428BCA" points="98.442,246.736 103.429,255.371 108.415,246.736 			"/>
		</g>
	</g>
</g>
</svg>
